<?xml version="1.0" encoding="UTF-8" standalone="no"?>
<!DOCTYPE svg PUBLIC "-//W3C//DTD SVG 1.1//EN"
 "http://www.w3.org/Graphics/SVG/1.1/DTD/svg11.dtd">
<!-- Generated by graphviz version 2.36.0 (20140111.2315)
 -->
<!-- Title: Room.h Pages: 1 -->
<svg width="179pt" height="84pt"
 viewBox="0.00 0.00 179.00 84.00" xmlns="http://www.w3.org/2000/svg" xmlns:xlink="http://www.w3.org/1999/xlink">
<g id="graph0" class="graph" transform="scale(1 1) rotate(0) translate(4 80)">
<title>Room.h</title>
<polygon fill="white" stroke="none" points="-4,4 -4,-80 175,-80 175,4 -4,4"/>
<!-- Node1 -->
<g id="node1" class="node"><title>Node1</title>
<polygon fill="#bfbfbf" stroke="black" points="52.5,-56.5 52.5,-75.5 103.5,-75.5 103.5,-56.5 52.5,-56.5"/>
<text text-anchor="middle" x="78" y="-63.5" font-family="Helvetica,sans-Serif" font-size="10.00">Room.h</text>
</g>
<!-- Node2 -->
<g id="node2" class="node"><title>Node2</title>
<g id="a_node2"><a xlink:href="Room_8cpp.html" target="_top" xlink:title="Room.cpp">
<polygon fill="white" stroke="black" points="0,-0.5 0,-19.5 62,-19.5 62,-0.5 0,-0.5"/>
<text text-anchor="middle" x="31" y="-7.5" font-family="Helvetica,sans-Serif" font-size="10.00">Room.cpp</text>
</a>
</g>
</g>
<!-- Node1&#45;&gt;Node2 -->
<g id="edge1" class="edge"><title>Node1&#45;&gt;Node2</title>
<path fill="none" stroke="midnightblue" d="M63.5792,-48.4314C55.3419,-38.9673 45.3461,-27.4827 38.6167,-19.7511"/>
<polygon fill="midnightblue" stroke="midnightblue" points="61.0336,-50.8378 70.2389,-56.083 66.3137,-46.2421 61.0336,-50.8378"/>
</g>
<!-- Node3 -->
<g id="node3" class="node"><title>Node3</title>
<g id="a_node3"><a xlink:href="updateRoom_8cpp.html" target="_top" xlink:title="updateRoom.cpp">
<polygon fill="white" stroke="black" points="80.5,-0.5 80.5,-19.5 171.5,-19.5 171.5,-0.5 80.5,-0.5"/>
<text text-anchor="middle" x="126" y="-7.5" font-family="Helvetica,sans-Serif" font-size="10.00">updateRoom.cpp</text>
</a>
</g>
</g>
<!-- Node1&#45;&gt;Node3 -->
<g id="edge2" class="edge"><title>Node1&#45;&gt;Node3</title>
<path fill="none" stroke="midnightblue" d="M92.7277,-48.4314C101.14,-38.9673 111.349,-27.4827 118.221,-19.7511"/>
<polygon fill="midnightblue" stroke="midnightblue" points="89.954,-46.2836 85.9262,-56.083 95.1858,-50.9342 89.954,-46.2836"/>
</g>
</g>
</svg>
