<?xml version="1.0" encoding="UTF-8" standalone="no"?>
<!DOCTYPE svg PUBLIC "-//W3C//DTD SVG 1.1//EN"
 "http://www.w3.org/Graphics/SVG/1.1/DTD/svg11.dtd">
<!-- Generated by graphviz version 2.36.0 (20140111.2315)
 -->
<!-- Title: main Pages: 1 -->
<svg width="180pt" height="66pt"
 viewBox="0.00 0.00 180.00 66.00" xmlns="http://www.w3.org/2000/svg" xmlns:xlink="http://www.w3.org/1999/xlink">
<g id="graph0" class="graph" transform="scale(1 1) rotate(0) translate(4 62)">
<title>main</title>
<polygon fill="white" stroke="none" points="-4,4 -4,-62 176,-62 176,4 -4,4"/>
<!-- Node1 -->
<g id="node1" class="node"><title>Node1</title>
<polygon fill="#bfbfbf" stroke="black" points="0,-19.5 0,-38.5 38,-38.5 38,-19.5 0,-19.5"/>
<text text-anchor="middle" x="19" y="-26.5" font-family="Helvetica,sans-Serif" font-size="10.00">main</text>
</g>
<!-- Node2 -->
<g id="node2" class="node"><title>Node2</title>
<g id="a_node2"><a xlink:href="classRoom.html#ae3132aaaa310aa04492f8cb8a9cbff25" target="_top" xlink:title="Room::setFlooring">
<polygon fill="white" stroke="black" points="74.5,-38.5 74.5,-57.5 171.5,-57.5 171.5,-38.5 74.5,-38.5"/>
<text text-anchor="middle" x="123" y="-45.5" font-family="Helvetica,sans-Serif" font-size="10.00">Room::setFlooring</text>
</a>
</g>
</g>
<!-- Node1&#45;&gt;Node2 -->
<g id="edge1" class="edge"><title>Node1&#45;&gt;Node2</title>
<path fill="none" stroke="midnightblue" d="M38.2356,-32.3968C45.7207,-33.7911 54.8387,-35.4896 64.2692,-37.2462"/>
<polygon fill="midnightblue" stroke="midnightblue" points="63.6827,-40.6971 74.1546,-39.0876 64.9646,-33.8155 63.6827,-40.6971"/>
</g>
<!-- Node3 -->
<g id="node3" class="node"><title>Node3</title>
<g id="a_node3"><a xlink:href="utilities_8h.html#a334955a74c33e5d837de6484dc6a97da" target="_top" xlink:title="println">
<polygon fill="white" stroke="black" points="101.5,-0.5 101.5,-19.5 144.5,-19.5 144.5,-0.5 101.5,-0.5"/>
<text text-anchor="middle" x="123" y="-7.5" font-family="Helvetica,sans-Serif" font-size="10.00">println</text>
</a>
</g>
</g>
<!-- Node1&#45;&gt;Node3 -->
<g id="edge2" class="edge"><title>Node1&#45;&gt;Node3</title>
<path fill="none" stroke="midnightblue" d="M38.2356,-25.6032C52.9461,-22.863 73.9637,-18.9479 91.2652,-15.7251"/>
<polygon fill="midnightblue" stroke="midnightblue" points="92.2781,-19.0967 101.468,-13.8246 90.9962,-12.2151 92.2781,-19.0967"/>
</g>
</g>
</svg>
