<?xml version="1.0" encoding="UTF-8" standalone="no"?>
<!DOCTYPE svg PUBLIC "-//W3C//DTD SVG 1.1//EN"
 "http://www.w3.org/Graphics/SVG/1.1/DTD/svg11.dtd">
<!-- Generated by graphviz version 2.36.0 (20140111.2315)
 -->
<!-- Title: updateRoom.cpp Pages: 1 -->
<svg width="417pt" height="140pt"
 viewBox="0.00 0.00 417.45 140.00" xmlns="http://www.w3.org/2000/svg" xmlns:xlink="http://www.w3.org/1999/xlink">
<g id="graph0" class="graph" transform="scale(1 1) rotate(0) translate(4 136)">
<title>updateRoom.cpp</title>
<polygon fill="white" stroke="none" points="-4,4 -4,-136 413.45,-136 413.45,4 -4,4"/>
<!-- Node1 -->
<g id="node1" class="node"><title>Node1</title>
<polygon fill="#bfbfbf" stroke="black" points="140.95,-112.5 140.95,-131.5 231.95,-131.5 231.95,-112.5 140.95,-112.5"/>
<text text-anchor="middle" x="186.45" y="-119.5" font-family="Helvetica,sans-Serif" font-size="10.00">updateRoom.cpp</text>
</g>
<!-- Node2 -->
<g id="node2" class="node"><title>Node2</title>
<polygon fill="white" stroke="#bfbfbf" points="14.4503,-0.5 14.4503,-19.5 68.4503,-19.5 68.4503,-0.5 14.4503,-0.5"/>
<text text-anchor="middle" x="41.4503" y="-7.5" font-family="Helvetica,sans-Serif" font-size="10.00">iostream</text>
</g>
<!-- Node1&#45;&gt;Node2 -->
<g id="edge1" class="edge"><title>Node1&#45;&gt;Node2</title>
<path fill="none" stroke="midnightblue" d="M140.521,-116.056C92.2546,-109.802 21.0533,-97.2081 4.45026,-76 -7.77381,-60.3854 7.75444,-40.2685 22.2736,-26.5781"/>
<polygon fill="midnightblue" stroke="midnightblue" points="24.8778,-28.9476 30.0533,-19.7028 20.2424,-23.7023 24.8778,-28.9476"/>
</g>
<!-- Node3 -->
<g id="node3" class="node"><title>Node3</title>
<polygon fill="white" stroke="#bfbfbf" points="233.45,-56.5 233.45,-75.5 283.45,-75.5 283.45,-56.5 233.45,-56.5"/>
<text text-anchor="middle" x="258.45" y="-63.5" font-family="Helvetica,sans-Serif" font-size="10.00">iomanip</text>
</g>
<!-- Node1&#45;&gt;Node3 -->
<g id="edge2" class="edge"><title>Node1&#45;&gt;Node3</title>
<path fill="none" stroke="midnightblue" d="M198.018,-112.324C208.87,-104.185 225.331,-91.8395 238.334,-82.0874"/>
<polygon fill="midnightblue" stroke="midnightblue" points="240.772,-84.6339 246.672,-75.8339 236.572,-79.0339 240.772,-84.6339"/>
</g>
<!-- Node4 -->
<g id="node4" class="node"><title>Node4</title>
<polygon fill="white" stroke="#bfbfbf" points="301.95,-56.5 301.95,-75.5 346.95,-75.5 346.95,-56.5 301.95,-56.5"/>
<text text-anchor="middle" x="324.45" y="-63.5" font-family="Helvetica,sans-Serif" font-size="10.00">cstdlib</text>
</g>
<!-- Node1&#45;&gt;Node4 -->
<g id="edge3" class="edge"><title>Node1&#45;&gt;Node4</title>
<path fill="none" stroke="midnightblue" d="M208.317,-112.444C231.23,-103.478 267.426,-89.314 293.317,-79.1827"/>
<polygon fill="midnightblue" stroke="midnightblue" points="294.649,-82.4198 302.686,-75.5164 292.098,-75.9011 294.649,-82.4198"/>
</g>
<!-- Node5 -->
<g id="node5" class="node"><title>Node5</title>
<polygon fill="white" stroke="#bfbfbf" points="365.45,-56.5 365.45,-75.5 409.45,-75.5 409.45,-56.5 365.45,-56.5"/>
<text text-anchor="middle" x="387.45" y="-63.5" font-family="Helvetica,sans-Serif" font-size="10.00">cmath</text>
</g>
<!-- Node1&#45;&gt;Node5 -->
<g id="edge4" class="edge"><title>Node1&#45;&gt;Node5</title>
<path fill="none" stroke="midnightblue" d="M219.201,-112.424C253.274,-103.468 308.155,-88.947 355.45,-76 355.551,-75.9724 355.652,-75.9447 355.753,-75.917"/>
<polygon fill="midnightblue" stroke="midnightblue" points="356.725,-79.2798 365.428,-73.2374 354.856,-72.5338 356.725,-79.2798"/>
</g>
<!-- Node6 -->
<g id="node6" class="node"><title>Node6</title>
<polygon fill="white" stroke="#bfbfbf" points="92.9503,-0.5 92.9503,-19.5 133.95,-19.5 133.95,-0.5 92.9503,-0.5"/>
<text text-anchor="middle" x="113.45" y="-7.5" font-family="Helvetica,sans-Serif" font-size="10.00">string</text>
</g>
<!-- Node1&#45;&gt;Node6 -->
<g id="edge5" class="edge"><title>Node1&#45;&gt;Node6</title>
<path fill="none" stroke="midnightblue" d="M181.683,-112.407C174.6,-99.7928 160.703,-75.6342 147.45,-56 141.014,-46.4638 133.323,-36.2015 126.885,-27.8886"/>
<polygon fill="midnightblue" stroke="midnightblue" points="129.436,-25.4689 120.51,-19.76 123.927,-29.7887 129.436,-25.4689"/>
</g>
<!-- Node7 -->
<g id="node7" class="node"><title>Node7</title>
<polygon fill="white" stroke="#bfbfbf" points="168.45,-0.5 168.45,-19.5 208.45,-19.5 208.45,-0.5 168.45,-0.5"/>
<text text-anchor="middle" x="188.45" y="-7.5" font-family="Helvetica,sans-Serif" font-size="10.00">utility</text>
</g>
<!-- Node1&#45;&gt;Node7 -->
<g id="edge6" class="edge"><title>Node1&#45;&gt;Node7</title>
<path fill="none" stroke="midnightblue" d="M186.607,-112.368C186.93,-94.617 187.675,-53.6664 188.112,-29.5974"/>
<polygon fill="midnightblue" stroke="midnightblue" points="191.612,-29.6534 188.294,-19.5914 184.613,-29.5261 191.612,-29.6534"/>
</g>
<!-- Node8 -->
<g id="node8" class="node"><title>Node8</title>
<g id="a_node8"><a xlink:href="utilities_8h.html" target="_top" xlink:title="utilities.h">
<polygon fill="white" stroke="black" points="13.4503,-56.5 13.4503,-75.5 69.4503,-75.5 69.4503,-56.5 13.4503,-56.5"/>
<text text-anchor="middle" x="41.4503" y="-63.5" font-family="Helvetica,sans-Serif" font-size="10.00">utilities.h</text>
</a>
</g>
</g>
<!-- Node1&#45;&gt;Node8 -->
<g id="edge7" class="edge"><title>Node1&#45;&gt;Node8</title>
<path fill="none" stroke="midnightblue" d="M163.475,-112.444C139.293,-103.438 101.032,-89.1891 73.8041,-79.049"/>
<polygon fill="midnightblue" stroke="midnightblue" points="74.9112,-75.7265 64.3185,-75.5164 72.4682,-82.2864 74.9112,-75.7265"/>
</g>
<!-- Node9 -->
<g id="node9" class="node"><title>Node9</title>
<g id="a_node9"><a xlink:href="Room_8h.html" target="_top" xlink:title="Room.h">
<polygon fill="white" stroke="black" points="87.9503,-56.5 87.9503,-75.5 138.95,-75.5 138.95,-56.5 87.9503,-56.5"/>
<text text-anchor="middle" x="113.45" y="-63.5" font-family="Helvetica,sans-Serif" font-size="10.00">Room.h</text>
</a>
</g>
</g>
<!-- Node1&#45;&gt;Node9 -->
<g id="edge10" class="edge"><title>Node1&#45;&gt;Node9</title>
<path fill="none" stroke="midnightblue" d="M174.722,-112.324C163.613,-104.107 146.708,-91.6017 133.467,-81.8069"/>
<polygon fill="midnightblue" stroke="midnightblue" points="135.513,-78.9671 125.392,-75.8339 131.35,-84.5948 135.513,-78.9671"/>
</g>
<!-- Node8&#45;&gt;Node2 -->
<g id="edge8" class="edge"><title>Node8&#45;&gt;Node2</title>
<path fill="none" stroke="midnightblue" d="M41.4503,-56.083C41.4503,-49.0059 41.4503,-38.8611 41.4503,-29.9865"/>
<polygon fill="midnightblue" stroke="midnightblue" points="44.9504,-29.751 41.4503,-19.7511 37.9504,-29.7511 44.9504,-29.751"/>
</g>
<!-- Node8&#45;&gt;Node6 -->
<g id="edge9" class="edge"><title>Node8&#45;&gt;Node6</title>
<path fill="none" stroke="midnightblue" d="M53.0183,-56.324C63.8704,-48.1849 80.3309,-35.8395 93.3337,-26.0874"/>
<polygon fill="midnightblue" stroke="midnightblue" points="95.7717,-28.6339 101.672,-19.8339 91.5717,-23.0339 95.7717,-28.6339"/>
</g>
<!-- Node9&#45;&gt;Node2 -->
<g id="edge11" class="edge"><title>Node9&#45;&gt;Node2</title>
<path fill="none" stroke="midnightblue" d="M101.882,-56.324C91.0301,-48.1849 74.5696,-35.8395 61.5668,-26.0874"/>
<polygon fill="midnightblue" stroke="midnightblue" points="63.3288,-23.0339 53.2288,-19.8339 59.1288,-28.6339 63.3288,-23.0339"/>
</g>
<!-- Node9&#45;&gt;Node6 -->
<g id="edge12" class="edge"><title>Node9&#45;&gt;Node6</title>
<path fill="none" stroke="midnightblue" d="M113.45,-56.083C113.45,-49.0059 113.45,-38.8611 113.45,-29.9865"/>
<polygon fill="midnightblue" stroke="midnightblue" points="116.95,-29.751 113.45,-19.7511 109.95,-29.7511 116.95,-29.751"/>
</g>
<!-- Node9&#45;&gt;Node7 -->
<g id="edge13" class="edge"><title>Node9&#45;&gt;Node7</title>
<path fill="none" stroke="midnightblue" d="M125.5,-56.324C136.913,-48.1066 154.281,-35.6017 167.885,-25.8069"/>
<polygon fill="midnightblue" stroke="midnightblue" points="170.111,-28.5174 176.181,-19.8339 166.021,-22.8366 170.111,-28.5174"/>
</g>
</g>
</svg>
