<?xml version="1.0" encoding="UTF-8" standalone="no"?>
<!DOCTYPE svg PUBLIC "-//W3C//DTD SVG 1.1//EN"
 "http://www.w3.org/Graphics/SVG/1.1/DTD/svg11.dtd">
<!-- Generated by graphviz version 2.36.0 (20140111.2315)
 -->
<!-- Title: House::display Pages: 1 -->
<svg width="228pt" height="66pt"
 viewBox="0.00 0.00 228.00 66.00" xmlns="http://www.w3.org/2000/svg" xmlns:xlink="http://www.w3.org/1999/xlink">
<g id="graph0" class="graph" transform="scale(1 1) rotate(0) translate(4 62)">
<title>House::display</title>
<polygon fill="white" stroke="none" points="-4,4 -4,-62 224,-62 224,4 -4,4"/>
<!-- Node1 -->
<g id="node1" class="node"><title>Node1</title>
<polygon fill="#bfbfbf" stroke="black" points="0,-19.5 0,-38.5 82,-38.5 82,-19.5 0,-19.5"/>
<text text-anchor="middle" x="41" y="-26.5" font-family="Helvetica,sans-Serif" font-size="10.00">House::display</text>
</g>
<!-- Node2 -->
<g id="node2" class="node"><title>Node2</title>
<g id="a_node2"><a xlink:href="classRoom.html#a1f003d77d99bb89b1c5b502f3a5fb42e" target="_top" xlink:title="Room::flooringCost">
<polygon fill="white" stroke="black" points="118.5,-38.5 118.5,-57.5 219.5,-57.5 219.5,-38.5 118.5,-38.5"/>
<text text-anchor="middle" x="169" y="-45.5" font-family="Helvetica,sans-Serif" font-size="10.00">Room::flooringCost</text>
</a>
</g>
</g>
<!-- Node1&#45;&gt;Node2 -->
<g id="edge1" class="edge"><title>Node1&#45;&gt;Node2</title>
<path fill="none" stroke="midnightblue" d="M82.2136,-35.064C90.5861,-36.3265 99.579,-37.6826 108.479,-39.0246"/>
<polygon fill="midnightblue" stroke="midnightblue" points="108.04,-42.4979 118.45,-40.5282 109.084,-35.5762 108.04,-42.4979"/>
</g>
<!-- Node3 -->
<g id="node3" class="node"><title>Node3</title>
<g id="a_node3"><a xlink:href="classHouse.html#ade9f3a768375a32eea123837de86e516" target="_top" xlink:title="House::size">
<polygon fill="white" stroke="black" points="134.5,-0.5 134.5,-19.5 203.5,-19.5 203.5,-0.5 134.5,-0.5"/>
<text text-anchor="middle" x="169" y="-7.5" font-family="Helvetica,sans-Serif" font-size="10.00">House::size</text>
</a>
</g>
</g>
<!-- Node1&#45;&gt;Node3 -->
<g id="edge2" class="edge"><title>Node1&#45;&gt;Node3</title>
<path fill="none" stroke="midnightblue" d="M82.2136,-22.936C95.6433,-20.9109 110.67,-18.6451 124.348,-16.5824"/>
<polygon fill="midnightblue" stroke="midnightblue" points="125.13,-20.0041 134.497,-15.0521 124.087,-13.0824 125.13,-20.0041"/>
</g>
</g>
</svg>
