<?xml version="1.0" encoding="UTF-8" standalone="no"?>
<!DOCTYPE svg PUBLIC "-//W3C//DTD SVG 1.1//EN"
 "http://www.w3.org/Graphics/SVG/1.1/DTD/svg11.dtd">
<!-- Generated by graphviz version 2.36.0 (20140111.2315)
 -->
<!-- Title: House.cpp Pages: 1 -->
<svg width="211pt" height="196pt"
 viewBox="0.00 0.00 211.00 196.00" xmlns="http://www.w3.org/2000/svg" xmlns:xlink="http://www.w3.org/1999/xlink">
<g id="graph0" class="graph" transform="scale(1 1) rotate(0) translate(4 192)">
<title>House.cpp</title>
<polygon fill="white" stroke="none" points="-4,4 -4,-192 207,-192 207,4 -4,4"/>
<!-- Node1 -->
<g id="node1" class="node"><title>Node1</title>
<polygon fill="#bfbfbf" stroke="black" points="87,-168.5 87,-187.5 151,-187.5 151,-168.5 87,-168.5"/>
<text text-anchor="middle" x="119" y="-175.5" font-family="Helvetica,sans-Serif" font-size="10.00">House.cpp</text>
</g>
<!-- Node2 -->
<g id="node2" class="node"><title>Node2</title>
<g id="a_node2"><a xlink:href="House_8h.html" target="_top" xlink:title="House.h">
<polygon fill="white" stroke="black" points="92.5,-112.5 92.5,-131.5 145.5,-131.5 145.5,-112.5 92.5,-112.5"/>
<text text-anchor="middle" x="119" y="-119.5" font-family="Helvetica,sans-Serif" font-size="10.00">House.h</text>
</a>
</g>
</g>
<!-- Node1&#45;&gt;Node2 -->
<g id="edge1" class="edge"><title>Node1&#45;&gt;Node2</title>
<path fill="none" stroke="midnightblue" d="M119,-168.083C119,-161.006 119,-150.861 119,-141.986"/>
<polygon fill="midnightblue" stroke="midnightblue" points="122.5,-141.751 119,-131.751 115.5,-141.751 122.5,-141.751"/>
</g>
<!-- Node3 -->
<g id="node3" class="node"><title>Node3</title>
<polygon fill="white" stroke="#bfbfbf" points="0,-0.5 0,-19.5 54,-19.5 54,-0.5 0,-0.5"/>
<text text-anchor="middle" x="27" y="-7.5" font-family="Helvetica,sans-Serif" font-size="10.00">iostream</text>
</g>
<!-- Node2&#45;&gt;Node3 -->
<g id="edge2" class="edge"><title>Node2&#45;&gt;Node3</title>
<path fill="none" stroke="midnightblue" d="M102.97,-112.488C89.2837,-104.557 69.8323,-91.6216 57,-76 45.6705,-62.208 37.6114,-43.4349 32.7187,-29.6095"/>
<polygon fill="midnightblue" stroke="midnightblue" points="35.9298,-28.1713 29.4718,-19.7722 29.2825,-30.3654 35.9298,-28.1713"/>
</g>
<!-- Node4 -->
<g id="node4" class="node"><title>Node4</title>
<polygon fill="white" stroke="#bfbfbf" points="130.5,-0.5 130.5,-19.5 171.5,-19.5 171.5,-0.5 130.5,-0.5"/>
<text text-anchor="middle" x="151" y="-7.5" font-family="Helvetica,sans-Serif" font-size="10.00">string</text>
</g>
<!-- Node2&#45;&gt;Node4 -->
<g id="edge3" class="edge"><title>Node2&#45;&gt;Node4</title>
<path fill="none" stroke="midnightblue" d="M121.511,-112.368C126.698,-94.5366 138.696,-53.2953 145.685,-29.2717"/>
<polygon fill="midnightblue" stroke="midnightblue" points="149.068,-30.1711 148.501,-19.5914 142.347,-28.2157 149.068,-30.1711"/>
</g>
<!-- Node5 -->
<g id="node5" class="node"><title>Node5</title>
<polygon fill="white" stroke="#bfbfbf" points="174.5,-56.5 174.5,-75.5 203.5,-75.5 203.5,-56.5 174.5,-56.5"/>
<text text-anchor="middle" x="189" y="-63.5" font-family="Helvetica,sans-Serif" font-size="10.00">list</text>
</g>
<!-- Node2&#45;&gt;Node5 -->
<g id="edge4" class="edge"><title>Node2&#45;&gt;Node5</title>
<path fill="none" stroke="midnightblue" d="M130.247,-112.324C140.797,-104.185 156.801,-91.8395 169.442,-82.0874"/>
<polygon fill="midnightblue" stroke="midnightblue" points="171.769,-84.7132 177.549,-75.8339 167.493,-79.1707 171.769,-84.7132"/>
</g>
<!-- Node6 -->
<g id="node6" class="node"><title>Node6</title>
<g id="a_node6"><a xlink:href="Room_8h.html" target="_top" xlink:title="Room.h">
<polygon fill="white" stroke="black" points="66.5,-56.5 66.5,-75.5 117.5,-75.5 117.5,-56.5 66.5,-56.5"/>
<text text-anchor="middle" x="92" y="-63.5" font-family="Helvetica,sans-Serif" font-size="10.00">Room.h</text>
</a>
</g>
</g>
<!-- Node2&#45;&gt;Node6 -->
<g id="edge5" class="edge"><title>Node2&#45;&gt;Node6</title>
<path fill="none" stroke="midnightblue" d="M114.541,-112.083C110.846,-104.691 105.477,-93.9533 100.906,-84.8111"/>
<polygon fill="midnightblue" stroke="midnightblue" points="103.978,-83.1301 96.3755,-75.7511 97.7172,-86.2606 103.978,-83.1301"/>
</g>
<!-- Node6&#45;&gt;Node3 -->
<g id="edge6" class="edge"><title>Node6&#45;&gt;Node3</title>
<path fill="none" stroke="midnightblue" d="M81.5566,-56.324C71.8538,-48.2631 57.1847,-36.0765 45.5003,-26.3695"/>
<polygon fill="midnightblue" stroke="midnightblue" points="47.5619,-23.532 37.6334,-19.8339 43.0887,-28.9163 47.5619,-23.532"/>
</g>
<!-- Node6&#45;&gt;Node4 -->
<g id="edge7" class="edge"><title>Node6&#45;&gt;Node4</title>
<path fill="none" stroke="midnightblue" d="M101.479,-56.324C110.201,-48.3414 123.343,-36.3128 133.898,-26.6529"/>
<polygon fill="midnightblue" stroke="midnightblue" points="136.334,-29.1674 141.348,-19.8339 131.608,-24.0036 136.334,-29.1674"/>
</g>
<!-- Node7 -->
<g id="node7" class="node"><title>Node7</title>
<polygon fill="white" stroke="#bfbfbf" points="72,-0.5 72,-19.5 112,-19.5 112,-0.5 72,-0.5"/>
<text text-anchor="middle" x="92" y="-7.5" font-family="Helvetica,sans-Serif" font-size="10.00">utility</text>
</g>
<!-- Node6&#45;&gt;Node7 -->
<g id="edge8" class="edge"><title>Node6&#45;&gt;Node7</title>
<path fill="none" stroke="midnightblue" d="M92,-56.083C92,-49.0059 92,-38.8611 92,-29.9865"/>
<polygon fill="midnightblue" stroke="midnightblue" points="95.5001,-29.751 92,-19.7511 88.5001,-29.7511 95.5001,-29.751"/>
</g>
</g>
</svg>
