<?xml version="1.0" encoding="UTF-8" standalone="no"?>
<!DOCTYPE svg PUBLIC "-//W3C//DTD SVG 1.1//EN"
 "http://www.w3.org/Graphics/SVG/1.1/DTD/svg11.dtd">
<!-- Generated by graphviz version 2.36.0 (20140111.2315)
 -->
<!-- Title: operator&lt;&lt; Pages: 1 -->
<svg width="328pt" height="66pt"
 viewBox="0.00 0.00 328.00 66.00" xmlns="http://www.w3.org/2000/svg" xmlns:xlink="http://www.w3.org/1999/xlink">
<g id="graph0" class="graph" transform="scale(1 1) rotate(0) translate(4 62)">
<title>operator&lt;&lt;</title>
<polygon fill="white" stroke="none" points="-4,4 -4,-62 324,-62 324,4 -4,4"/>
<!-- Node1 -->
<g id="node1" class="node"><title>Node1</title>
<polygon fill="#bfbfbf" stroke="black" points="0,-19.5 0,-38.5 64,-38.5 64,-19.5 0,-19.5"/>
<text text-anchor="middle" x="32" y="-26.5" font-family="Helvetica,sans-Serif" font-size="10.00">operator&lt;&lt;</text>
</g>
<!-- Node2 -->
<g id="node2" class="node"><title>Node2</title>
<g id="a_node2"><a xlink:href="classHouse.html#a89ae4326844dbe4ba8e2fd986ff8def4" target="_top" xlink:title="House::display">
<polygon fill="white" stroke="black" points="100,-19.5 100,-38.5 182,-38.5 182,-19.5 100,-19.5"/>
<text text-anchor="middle" x="141" y="-26.5" font-family="Helvetica,sans-Serif" font-size="10.00">House::display</text>
</a>
</g>
</g>
<!-- Node1&#45;&gt;Node2 -->
<g id="edge1" class="edge"><title>Node1&#45;&gt;Node2</title>
<path fill="none" stroke="midnightblue" d="M64.2365,-29C72.2169,-29 81.0018,-29 89.675,-29"/>
<polygon fill="midnightblue" stroke="midnightblue" points="89.7504,-32.5001 99.7504,-29 89.7503,-25.5001 89.7504,-32.5001"/>
</g>
<!-- Node3 -->
<g id="node3" class="node"><title>Node3</title>
<g id="a_node3"><a xlink:href="classRoom.html#a1f003d77d99bb89b1c5b502f3a5fb42e" target="_top" xlink:title="Room::flooringCost">
<polygon fill="white" stroke="black" points="218.5,-38.5 218.5,-57.5 319.5,-57.5 319.5,-38.5 218.5,-38.5"/>
<text text-anchor="middle" x="269" y="-45.5" font-family="Helvetica,sans-Serif" font-size="10.00">Room::flooringCost</text>
</a>
</g>
</g>
<!-- Node2&#45;&gt;Node3 -->
<g id="edge2" class="edge"><title>Node2&#45;&gt;Node3</title>
<path fill="none" stroke="midnightblue" d="M182.214,-35.064C190.586,-36.3265 199.579,-37.6826 208.479,-39.0246"/>
<polygon fill="midnightblue" stroke="midnightblue" points="208.04,-42.4979 218.45,-40.5282 209.084,-35.5762 208.04,-42.4979"/>
</g>
<!-- Node4 -->
<g id="node4" class="node"><title>Node4</title>
<g id="a_node4"><a xlink:href="classHouse.html#ade9f3a768375a32eea123837de86e516" target="_top" xlink:title="House::size">
<polygon fill="white" stroke="black" points="234.5,-0.5 234.5,-19.5 303.5,-19.5 303.5,-0.5 234.5,-0.5"/>
<text text-anchor="middle" x="269" y="-7.5" font-family="Helvetica,sans-Serif" font-size="10.00">House::size</text>
</a>
</g>
</g>
<!-- Node2&#45;&gt;Node4 -->
<g id="edge3" class="edge"><title>Node2&#45;&gt;Node4</title>
<path fill="none" stroke="midnightblue" d="M182.214,-22.936C195.643,-20.9109 210.67,-18.6451 224.348,-16.5824"/>
<polygon fill="midnightblue" stroke="midnightblue" points="225.13,-20.0041 234.497,-15.0521 224.087,-13.0824 225.13,-20.0041"/>
</g>
</g>
</svg>
