<?xml version="1.0" encoding="UTF-8" standalone="no"?>
<!DOCTYPE svg PUBLIC "-//W3C//DTD SVG 1.1//EN"
 "http://www.w3.org/Graphics/SVG/1.1/DTD/svg11.dtd">
<!-- Generated by graphviz version 2.36.0 (20140111.2315)
 -->
<!-- Title: Room.h Pages: 1 -->
<svg width="226pt" height="140pt"
 viewBox="0.00 0.00 226.00 140.00" xmlns="http://www.w3.org/2000/svg" xmlns:xlink="http://www.w3.org/1999/xlink">
<g id="graph0" class="graph" transform="scale(1 1) rotate(0) translate(4 136)">
<title>Room.h</title>
<polygon fill="white" stroke="none" points="-4,4 -4,-136 222,-136 222,4 -4,4"/>
<!-- Node1 -->
<g id="node1" class="node"><title>Node1</title>
<polygon fill="#bfbfbf" stroke="black" points="102.5,-112.5 102.5,-131.5 153.5,-131.5 153.5,-112.5 102.5,-112.5"/>
<text text-anchor="middle" x="128" y="-119.5" font-family="Helvetica,sans-Serif" font-size="10.00">Room.h</text>
</g>
<!-- Node2 -->
<g id="node2" class="node"><title>Node2</title>
<g id="a_node2"><a xlink:href="House_8h.html" target="_top" xlink:title="House.h">
<polygon fill="white" stroke="black" points="46.5,-56.5 46.5,-75.5 99.5,-75.5 99.5,-56.5 46.5,-56.5"/>
<text text-anchor="middle" x="73" y="-63.5" font-family="Helvetica,sans-Serif" font-size="10.00">House.h</text>
</a>
</g>
</g>
<!-- Node1&#45;&gt;Node2 -->
<g id="edge1" class="edge"><title>Node1&#45;&gt;Node2</title>
<path fill="none" stroke="midnightblue" d="M111.706,-105.002C101.959,-95.4329 89.947,-83.6389 81.9131,-75.7511"/>
<polygon fill="midnightblue" stroke="midnightblue" points="109.33,-107.575 118.918,-112.083 114.234,-102.58 109.33,-107.575"/>
</g>
<!-- Node4 -->
<g id="node4" class="node"><title>Node4</title>
<g id="a_node4"><a xlink:href="updateRoom_8cpp.html" target="_top" xlink:title="updateRoom.cpp">
<polygon fill="white" stroke="black" points="82.5,-0.5 82.5,-19.5 173.5,-19.5 173.5,-0.5 82.5,-0.5"/>
<text text-anchor="middle" x="128" y="-7.5" font-family="Helvetica,sans-Serif" font-size="10.00">updateRoom.cpp</text>
</a>
</g>
</g>
<!-- Node1&#45;&gt;Node4 -->
<g id="edge5" class="edge"><title>Node1&#45;&gt;Node4</title>
<path fill="none" stroke="midnightblue" d="M128,-102.348C128,-78.2538 128,-37.3079 128,-19.5914"/>
<polygon fill="midnightblue" stroke="midnightblue" points="124.5,-102.368 128,-112.368 131.5,-102.369 124.5,-102.368"/>
</g>
<!-- Node5 -->
<g id="node5" class="node"><title>Node5</title>
<g id="a_node5"><a xlink:href="Room_8cpp.html" target="_top" xlink:title="Room.cpp">
<polygon fill="white" stroke="black" points="156,-56.5 156,-75.5 218,-75.5 218,-56.5 156,-56.5"/>
<text text-anchor="middle" x="187" y="-63.5" font-family="Helvetica,sans-Serif" font-size="10.00">Room.cpp</text>
</a>
</g>
</g>
<!-- Node1&#45;&gt;Node5 -->
<g id="edge4" class="edge"><title>Node1&#45;&gt;Node5</title>
<path fill="none" stroke="midnightblue" d="M144.895,-105.537C155.415,-95.9087 168.569,-83.8694 177.348,-75.8339"/>
<polygon fill="midnightblue" stroke="midnightblue" points="142.493,-102.99 137.479,-112.324 147.219,-108.154 142.493,-102.99"/>
</g>
<!-- Node3 -->
<g id="node3" class="node"><title>Node3</title>
<g id="a_node3"><a xlink:href="House_8cpp.html" target="_top" xlink:title="House.cpp">
<polygon fill="white" stroke="black" points="0,-0.5 0,-19.5 64,-19.5 64,-0.5 0,-0.5"/>
<text text-anchor="middle" x="32" y="-7.5" font-family="Helvetica,sans-Serif" font-size="10.00">House.cpp</text>
</a>
</g>
</g>
<!-- Node2&#45;&gt;Node3 -->
<g id="edge2" class="edge"><title>Node2&#45;&gt;Node3</title>
<path fill="none" stroke="midnightblue" d="M59.9828,-47.8554C52.8833,-38.5048 44.396,-27.3265 38.6443,-19.7511"/>
<polygon fill="midnightblue" stroke="midnightblue" points="57.395,-50.235 66.2297,-56.083 62.9701,-46.002 57.395,-50.235"/>
</g>
<!-- Node2&#45;&gt;Node4 -->
<g id="edge3" class="edge"><title>Node2&#45;&gt;Node4</title>
<path fill="none" stroke="midnightblue" d="M89.2938,-49.0024C99.0406,-39.4329 111.053,-27.6389 119.087,-19.7511"/>
<polygon fill="midnightblue" stroke="midnightblue" points="86.7657,-46.5796 82.0821,-56.083 91.6699,-51.5746 86.7657,-46.5796"/>
</g>
</g>
</svg>
