<?xml version="1.0" encoding="UTF-8" standalone="no"?>
<!DOCTYPE svg PUBLIC "-//W3C//DTD SVG 1.1//EN"
 "http://www.w3.org/Graphics/SVG/1.1/DTD/svg11.dtd">
<!-- Generated by graphviz version 2.36.0 (20140111.2315)
 -->
<!-- Title: Room.cpp Pages: 1 -->
<svg width="255pt" height="140pt"
 viewBox="0.00 0.00 255.00 140.00" xmlns="http://www.w3.org/2000/svg" xmlns:xlink="http://www.w3.org/1999/xlink">
<g id="graph0" class="graph" transform="scale(1 1) rotate(0) translate(4 136)">
<title>Room.cpp</title>
<polygon fill="white" stroke="none" points="-4,4 -4,-136 251,-136 251,4 -4,4"/>
<!-- Node1 -->
<g id="node1" class="node"><title>Node1</title>
<polygon fill="#bfbfbf" stroke="black" points="65,-112.5 65,-131.5 127,-131.5 127,-112.5 65,-112.5"/>
<text text-anchor="middle" x="96" y="-119.5" font-family="Helvetica,sans-Serif" font-size="10.00">Room.cpp</text>
</g>
<!-- Node2 -->
<g id="node2" class="node"><title>Node2</title>
<polygon fill="white" stroke="#bfbfbf" points="0,-56.5 0,-75.5 50,-75.5 50,-56.5 0,-56.5"/>
<text text-anchor="middle" x="25" y="-63.5" font-family="Helvetica,sans-Serif" font-size="10.00">iomanip</text>
</g>
<!-- Node1&#45;&gt;Node2 -->
<g id="edge1" class="edge"><title>Node1&#45;&gt;Node2</title>
<path fill="none" stroke="midnightblue" d="M84.5926,-112.324C73.8912,-104.185 57.6593,-91.8395 44.8372,-82.0874"/>
<polygon fill="midnightblue" stroke="midnightblue" points="46.6932,-79.1018 36.6149,-75.8339 42.4556,-84.6734 46.6932,-79.1018"/>
</g>
<!-- Node3 -->
<g id="node3" class="node"><title>Node3</title>
<g id="a_node3"><a xlink:href="Room_8h.html" target="_top" xlink:title="Room.h">
<polygon fill="white" stroke="black" points="142.5,-56.5 142.5,-75.5 193.5,-75.5 193.5,-56.5 142.5,-56.5"/>
<text text-anchor="middle" x="168" y="-63.5" font-family="Helvetica,sans-Serif" font-size="10.00">Room.h</text>
</a>
</g>
</g>
<!-- Node1&#45;&gt;Node3 -->
<g id="edge2" class="edge"><title>Node1&#45;&gt;Node3</title>
<path fill="none" stroke="midnightblue" d="M107.568,-112.324C118.42,-104.185 134.881,-91.8395 147.883,-82.0874"/>
<polygon fill="midnightblue" stroke="midnightblue" points="150.321,-84.6339 156.221,-75.8339 146.121,-79.0339 150.321,-84.6339"/>
</g>
<!-- Node7 -->
<g id="node7" class="node"><title>Node7</title>
<g id="a_node7"><a xlink:href="utilities_8h.html" target="_top" xlink:title="utilities.h">
<polygon fill="white" stroke="black" points="68,-56.5 68,-75.5 124,-75.5 124,-56.5 68,-56.5"/>
<text text-anchor="middle" x="96" y="-63.5" font-family="Helvetica,sans-Serif" font-size="10.00">utilities.h</text>
</a>
</g>
</g>
<!-- Node1&#45;&gt;Node7 -->
<g id="edge6" class="edge"><title>Node1&#45;&gt;Node7</title>
<path fill="none" stroke="midnightblue" d="M96,-112.083C96,-105.006 96,-94.8611 96,-85.9865"/>
<polygon fill="midnightblue" stroke="midnightblue" points="99.5001,-85.751 96,-75.7511 92.5001,-85.7511 99.5001,-85.751"/>
</g>
<!-- Node4 -->
<g id="node4" class="node"><title>Node4</title>
<polygon fill="white" stroke="#bfbfbf" points="135,-0.5 135,-19.5 189,-19.5 189,-0.5 135,-0.5"/>
<text text-anchor="middle" x="162" y="-7.5" font-family="Helvetica,sans-Serif" font-size="10.00">iostream</text>
</g>
<!-- Node3&#45;&gt;Node4 -->
<g id="edge3" class="edge"><title>Node3&#45;&gt;Node4</title>
<path fill="none" stroke="midnightblue" d="M167.009,-56.083C166.214,-48.9272 165.071,-38.6353 164.077,-29.6911"/>
<polygon fill="midnightblue" stroke="midnightblue" points="167.555,-29.3034 162.972,-19.7511 160.598,-30.0765 167.555,-29.3034"/>
</g>
<!-- Node5 -->
<g id="node5" class="node"><title>Node5</title>
<polygon fill="white" stroke="#bfbfbf" points="75.5,-0.5 75.5,-19.5 116.5,-19.5 116.5,-0.5 75.5,-0.5"/>
<text text-anchor="middle" x="96" y="-7.5" font-family="Helvetica,sans-Serif" font-size="10.00">string</text>
</g>
<!-- Node3&#45;&gt;Node5 -->
<g id="edge4" class="edge"><title>Node3&#45;&gt;Node5</title>
<path fill="none" stroke="midnightblue" d="M156.432,-56.324C145.58,-48.1849 129.119,-35.8395 116.117,-26.0874"/>
<polygon fill="midnightblue" stroke="midnightblue" points="117.879,-23.0339 107.779,-19.8339 113.679,-28.6339 117.879,-23.0339"/>
</g>
<!-- Node6 -->
<g id="node6" class="node"><title>Node6</title>
<polygon fill="white" stroke="#bfbfbf" points="207,-0.5 207,-19.5 247,-19.5 247,-0.5 207,-0.5"/>
<text text-anchor="middle" x="227" y="-7.5" font-family="Helvetica,sans-Serif" font-size="10.00">utility</text>
</g>
<!-- Node3&#45;&gt;Node6 -->
<g id="edge5" class="edge"><title>Node3&#45;&gt;Node6</title>
<path fill="none" stroke="midnightblue" d="M177.479,-56.324C186.201,-48.3414 199.343,-36.3128 209.898,-26.6529"/>
<polygon fill="midnightblue" stroke="midnightblue" points="212.334,-29.1674 217.348,-19.8339 207.608,-24.0036 212.334,-29.1674"/>
</g>
<!-- Node7&#45;&gt;Node4 -->
<g id="edge7" class="edge"><title>Node7&#45;&gt;Node4</title>
<path fill="none" stroke="midnightblue" d="M106.604,-56.324C116.456,-48.2631 131.351,-36.0765 143.215,-26.3695"/>
<polygon fill="midnightblue" stroke="midnightblue" points="145.68,-28.8752 151.203,-19.8339 141.247,-23.4575 145.68,-28.8752"/>
</g>
<!-- Node7&#45;&gt;Node5 -->
<g id="edge8" class="edge"><title>Node7&#45;&gt;Node5</title>
<path fill="none" stroke="midnightblue" d="M96,-56.083C96,-49.0059 96,-38.8611 96,-29.9865"/>
<polygon fill="midnightblue" stroke="midnightblue" points="99.5001,-29.751 96,-19.7511 92.5001,-29.7511 99.5001,-29.751"/>
</g>
</g>
</svg>
