<?xml version="1.0" encoding="UTF-8" standalone="no"?>
<!DOCTYPE svg PUBLIC "-//W3C//DTD SVG 1.1//EN"
 "http://www.w3.org/Graphics/SVG/1.1/DTD/svg11.dtd">
<!-- Generated by graphviz version 2.36.0 (20140111.2315)
 -->
<!-- Title: House Pages: 1 -->
<!--zoomable 748 -->
<svg id="main" version="1.1" xmlns="http://www.w3.org/2000/svg" xmlns:xlink="http://www.w3.org/1999/xlink" xml:space="preserve" onload="init(evt)">
<style type="text/css"><![CDATA[
.edge:hover path { stroke: red; }
.edge:hover polygon { stroke: red; fill: red; }
]]></style>
<script type="text/javascript"><![CDATA[
var edges = document.getElementsByTagName('g');
if (edges && edges.length) {
  for (var i=0;i<edges.length;i++) {
    if (edges[i].id.substr(0,4)=='edge') {
      edges[i].setAttribute('class','edge');
    }
  }
}
]]></script>
        <defs>
                <circle id="rim" cx="0" cy="0" r="7"/>
                <circle id="rim2" cx="0" cy="0" r="3.5"/>
                <g id="zoomPlus">
                        <use xlink:href="#rim" fill="#404040">
                                <set attributeName="fill" to="#808080" begin="zoomplus.mouseover" end="zoomplus.mouseout"/>
                        </use>
                        <path d="M-4,0h8M0,-4v8" fill="none" stroke="white" stroke-width="1.5" pointer-events="none"/>
                </g>
                <g id="zoomMin">
                        <use xlink:href="#rim" fill="#404040">
                                <set attributeName="fill" to="#808080" begin="zoomminus.mouseover" end="zoomminus.mouseout"/>
                        </use>
                        <path d="M-4,0h8" fill="none" stroke="white" stroke-width="1.5" pointer-events="none"/>
                </g>
                <g id="dirArrow">
                        <path fill="none" stroke="white" stroke-width="1.5" d="M0,-3.0v7 M-2.5,-0.5L0,-3.0L2.5,-0.5"/>
                </g>
               <g id="resetDef">
                       <use xlink:href="#rim2" fill="#404040">
                               <set attributeName="fill" to="#808080" begin="reset.mouseover" end="reset.mouseout"/>
                       </use>
               </g>
        </defs>

<script type="text/javascript">
var viewWidth = 219;
var viewHeight = 748;
var sectionId = 'dynsection-0';
</script>
<script xlink:href="svgpan.js"/>
<svg id="graph" class="graph">
<g id="viewport">
<title>House</title>
<polygon fill="white" stroke="none" points="-4,4 -4,-744 215,-744 215,4 -4,4"/>
<!-- Node1 -->
<g id="node1" class="node"><title>Node1</title>
<polygon fill="#bfbfbf" stroke="black" points="75,-1 75,-179 149,-179 149,-1 75,-1"/>
<text text-anchor="middle" x="112" y="-167" font-family="Helvetica,sans-Serif" font-size="10.00">House</text>
<polyline fill="none" stroke="black" points="75,-160 149,-160 "/>
<text text-anchor="start" x="83" y="-148" font-family="Helvetica,sans-Serif" font-size="10.00">&#45; name</text>
<text text-anchor="start" x="83" y="-137" font-family="Helvetica,sans-Serif" font-size="10.00">&#45; currentSize</text>
<polyline fill="none" stroke="black" points="75,-130 149,-130 "/>
<text text-anchor="start" x="83" y="-118" font-family="Helvetica,sans-Serif" font-size="10.00">+ House()</text>
<text text-anchor="start" x="83" y="-107" font-family="Helvetica,sans-Serif" font-size="10.00">+ House()</text>
<text text-anchor="start" x="83" y="-96" font-family="Helvetica,sans-Serif" font-size="10.00">+ addRoom()</text>
<text text-anchor="start" x="83" y="-85" font-family="Helvetica,sans-Serif" font-size="10.00">+ setName()</text>
<text text-anchor="start" x="83" y="-74" font-family="Helvetica,sans-Serif" font-size="10.00">+ getName()</text>
<text text-anchor="start" x="83" y="-63" font-family="Helvetica,sans-Serif" font-size="10.00">+ begin()</text>
<text text-anchor="start" x="83" y="-52" font-family="Helvetica,sans-Serif" font-size="10.00">+ begin()</text>
<text text-anchor="start" x="83" y="-41" font-family="Helvetica,sans-Serif" font-size="10.00">+ end()</text>
<text text-anchor="start" x="83" y="-30" font-family="Helvetica,sans-Serif" font-size="10.00">+ end()</text>
<text text-anchor="start" x="83" y="-19" font-family="Helvetica,sans-Serif" font-size="10.00">+ size()</text>
<text text-anchor="start" x="83" y="-8" font-family="Helvetica,sans-Serif" font-size="10.00">+ display()</text>
</g>
<!-- Node2 -->
<g id="node2" class="node"><title>Node2</title>
<g id="a_node2"><a xlink:href="structHouse_1_1Node.html" target="_top" xlink:title="{House::Node\n||+ Node()\l}">
<polygon fill="white" stroke="black" points="75,-238.5 75,-295.5 149,-295.5 149,-238.5 75,-238.5"/>
<text text-anchor="middle" x="112" y="-283.5" font-family="Helvetica,sans-Serif" font-size="10.00">House::Node</text>
<polyline fill="none" stroke="black" points="75,-276.5 149,-276.5 "/>
<text text-anchor="middle" x="112" y="-264.5" font-family="Helvetica,sans-Serif" font-size="10.00"> </text>
<polyline fill="none" stroke="black" points="75,-257.5 149,-257.5 "/>
<text text-anchor="start" x="83" y="-245.5" font-family="Helvetica,sans-Serif" font-size="10.00">+ Node()</text>
</a>
</g>
</g>
<!-- Node2&#45;&gt;Node1 -->
<g id="edge1" class="edge"><title>Node2&#45;&gt;Node1</title>
<path fill="none" stroke="#404040" d="M112,-238.271C112,-225.115 112,-208.507 112,-191.222"/>
<polygon fill="none" stroke="#404040" points="112,-191.181 108,-185.181 112,-179.181 116,-185.181 112,-191.181"/>
<text text-anchor="middle" x="126" y="-212" font-family="Helvetica,sans-Serif" font-size="10.00"> &#45;head</text>
<text text-anchor="middle" x="126" y="-201" font-family="Helvetica,sans-Serif" font-size="10.00">&#45;tail</text>
</g>
<!-- Node2&#45;&gt;Node2 -->
<g id="edge2" class="edge"><title>Node2&#45;&gt;Node2</title>
<path fill="none" stroke="#404040" d="M149.015,-276.69C159.21,-276.222 167,-272.992 167,-267 167,-263.723 164.67,-261.272 160.891,-259.647"/>
<polygon fill="none" stroke="#404040" points="160.789,-259.627 154.13,-262.393 149.015,-257.31 155.675,-254.544 160.789,-259.627"/>
<text text-anchor="middle" x="181" y="-264.5" font-family="Helvetica,sans-Serif" font-size="10.00"> +next</text>
</g>
<!-- Node3 -->
<g id="node3" class="node"><title>Node3</title>
<g id="a_node3"><a xlink:href="classRoom.html" target="_top" xlink:title="{Room\n|+ UNITS\l&#45; name\l|+ Room()\l+ Room()\l+ Room()\l+ Room()\l+ getDimensions()\l+ setDimensions()\l+ getFlooring()\l+ setFlooring()\l+ setName()\l+ getName()\l+ area()\l+ flooringCost()\l+ display()\l+ operator==()\l+ operator\&lt;()\l}">
<polygon fill="white" stroke="black" points="63.5,-345 63.5,-567 160.5,-567 160.5,-345 63.5,-345"/>
<text text-anchor="middle" x="112" y="-555" font-family="Helvetica,sans-Serif" font-size="10.00">Room</text>
<polyline fill="none" stroke="black" points="63.5,-548 160.5,-548 "/>
<text text-anchor="start" x="71.5" y="-536" font-family="Helvetica,sans-Serif" font-size="10.00">+ UNITS</text>
<text text-anchor="start" x="71.5" y="-525" font-family="Helvetica,sans-Serif" font-size="10.00">&#45; name</text>
<polyline fill="none" stroke="black" points="63.5,-518 160.5,-518 "/>
<text text-anchor="start" x="71.5" y="-506" font-family="Helvetica,sans-Serif" font-size="10.00">+ Room()</text>
<text text-anchor="start" x="71.5" y="-495" font-family="Helvetica,sans-Serif" font-size="10.00">+ Room()</text>
<text text-anchor="start" x="71.5" y="-484" font-family="Helvetica,sans-Serif" font-size="10.00">+ Room()</text>
<text text-anchor="start" x="71.5" y="-473" font-family="Helvetica,sans-Serif" font-size="10.00">+ Room()</text>
<text text-anchor="start" x="71.5" y="-462" font-family="Helvetica,sans-Serif" font-size="10.00">+ getDimensions()</text>
<text text-anchor="start" x="71.5" y="-451" font-family="Helvetica,sans-Serif" font-size="10.00">+ setDimensions()</text>
<text text-anchor="start" x="71.5" y="-440" font-family="Helvetica,sans-Serif" font-size="10.00">+ getFlooring()</text>
<text text-anchor="start" x="71.5" y="-429" font-family="Helvetica,sans-Serif" font-size="10.00">+ setFlooring()</text>
<text text-anchor="start" x="71.5" y="-418" font-family="Helvetica,sans-Serif" font-size="10.00">+ setName()</text>
<text text-anchor="start" x="71.5" y="-407" font-family="Helvetica,sans-Serif" font-size="10.00">+ getName()</text>
<text text-anchor="start" x="71.5" y="-396" font-family="Helvetica,sans-Serif" font-size="10.00">+ area()</text>
<text text-anchor="start" x="71.5" y="-385" font-family="Helvetica,sans-Serif" font-size="10.00">+ flooringCost()</text>
<text text-anchor="start" x="71.5" y="-374" font-family="Helvetica,sans-Serif" font-size="10.00">+ display()</text>
<text text-anchor="start" x="71.5" y="-363" font-family="Helvetica,sans-Serif" font-size="10.00">+ operator==()</text>
<text text-anchor="start" x="71.5" y="-352" font-family="Helvetica,sans-Serif" font-size="10.00">+ operator&lt;()</text>
</a>
</g>
</g>
<!-- Node3&#45;&gt;Node2 -->
<g id="edge3" class="edge"><title>Node3&#45;&gt;Node2</title>
<path fill="none" stroke="#404040" d="M112,-344.87C112,-331.762 112,-319.105 112,-307.975"/>
<polygon fill="none" stroke="#404040" points="112,-307.673 108,-301.673 112,-295.673 116,-301.673 112,-307.673"/>
<text text-anchor="middle" x="126" y="-317.5" font-family="Helvetica,sans-Serif" font-size="10.00"> +data</text>
</g>
<!-- Node4 -->
<g id="node4" class="node"><title>Node4</title>
<g id="a_node4"><a xlink:href="classRoom_1_1DimensionSet.html" target="_top" xlink:title="{Room::DimensionSet\n|&#45; length\l&#45; width\l|+ DimensionSet()\l+ DimensionSet()\l+ setLength()\l+ getLength()\l+ setWidth()\l+ getWidth()\l}">
<polygon fill="white" stroke="black" points="0,-616.5 0,-739.5 110,-739.5 110,-616.5 0,-616.5"/>
<text text-anchor="middle" x="55" y="-727.5" font-family="Helvetica,sans-Serif" font-size="10.00">Room::DimensionSet</text>
<polyline fill="none" stroke="black" points="0,-720.5 110,-720.5 "/>
<text text-anchor="start" x="8" y="-708.5" font-family="Helvetica,sans-Serif" font-size="10.00">&#45; length</text>
<text text-anchor="start" x="8" y="-697.5" font-family="Helvetica,sans-Serif" font-size="10.00">&#45; width</text>
<polyline fill="none" stroke="black" points="0,-690.5 110,-690.5 "/>
<text text-anchor="start" x="8" y="-678.5" font-family="Helvetica,sans-Serif" font-size="10.00">+ DimensionSet()</text>
<text text-anchor="start" x="8" y="-667.5" font-family="Helvetica,sans-Serif" font-size="10.00">+ DimensionSet()</text>
<text text-anchor="start" x="8" y="-656.5" font-family="Helvetica,sans-Serif" font-size="10.00">+ setLength()</text>
<text text-anchor="start" x="8" y="-645.5" font-family="Helvetica,sans-Serif" font-size="10.00">+ getLength()</text>
<text text-anchor="start" x="8" y="-634.5" font-family="Helvetica,sans-Serif" font-size="10.00">+ setWidth()</text>
<text text-anchor="start" x="8" y="-623.5" font-family="Helvetica,sans-Serif" font-size="10.00">+ getWidth()</text>
</a>
</g>
</g>
<!-- Node4&#45;&gt;Node3 -->
<g id="edge4" class="edge"><title>Node4&#45;&gt;Node3</title>
<path fill="none" stroke="#404040" d="M70.7264,-616.302C73.7539,-604.617 77.0239,-591.996 80.3518,-579.151"/>
<polygon fill="none" stroke="#404040" points="80.4093,-578.929 78.0421,-572.117 83.4191,-567.312 85.7864,-574.124 80.4093,-578.929"/>
<text text-anchor="middle" x="107" y="-589.5" font-family="Helvetica,sans-Serif" font-size="10.00"> &#45;dimensions</text>
</g>
<!-- Node5 -->
<g id="node5" class="node"><title>Node5</title>
<g id="a_node5"><a xlink:href="structRoom_1_1Flooring.html" target="_top" xlink:title="{Room::Flooring\n|+ type\l+ unitCost\l|+ Flooring()\l+ Flooring()\l}">
<polygon fill="white" stroke="black" points="128.5,-638.5 128.5,-717.5 211.5,-717.5 211.5,-638.5 128.5,-638.5"/>
<text text-anchor="middle" x="170" y="-705.5" font-family="Helvetica,sans-Serif" font-size="10.00">Room::Flooring</text>
<polyline fill="none" stroke="black" points="128.5,-698.5 211.5,-698.5 "/>
<text text-anchor="start" x="136.5" y="-686.5" font-family="Helvetica,sans-Serif" font-size="10.00">+ type</text>
<text text-anchor="start" x="136.5" y="-675.5" font-family="Helvetica,sans-Serif" font-size="10.00">+ unitCost</text>
<polyline fill="none" stroke="black" points="128.5,-668.5 211.5,-668.5 "/>
<text text-anchor="start" x="136.5" y="-656.5" font-family="Helvetica,sans-Serif" font-size="10.00">+ Flooring()</text>
<text text-anchor="start" x="136.5" y="-645.5" font-family="Helvetica,sans-Serif" font-size="10.00">+ Flooring()</text>
</a>
</g>
</g>
<!-- Node5&#45;&gt;Node3 -->
<g id="edge5" class="edge"><title>Node5&#45;&gt;Node3</title>
<path fill="none" stroke="#404040" d="M159.831,-638.427C155.369,-621.505 149.861,-600.609 144.187,-579.089"/>
<polygon fill="none" stroke="#404040" points="144.176,-579.048 138.779,-574.266 141.117,-567.444 146.515,-572.226 144.176,-579.048"/>
<text text-anchor="middle" x="167" y="-589.5" font-family="Helvetica,sans-Serif" font-size="10.00"> &#45;flooring</text>
</g>
</g>
</svg>
        <g id="navigator" transform="translate(0 0)" fill="#404254">
                <rect fill="#f2f5e9" fill-opacity="0.5" stroke="#606060" stroke-width=".5" x="0" y="0" width="60" height="60"/>
                <use id="zoomplus" xlink:href="#zoomPlus" x="17" y="9" onmousedown="handleZoom(evt,'in')"/>
                <use id="zoomminus" xlink:href="#zoomMin" x="42" y="9" onmousedown="handleZoom(evt,'out')"/>
                <use id="reset" xlink:href="#resetDef" x="30" y="36" onmousedown="handleReset()"/>
                <g id="arrowUp" xlink:href="#dirArrow" transform="translate(30 24)" onmousedown="handlePan(0,-1)">
                  <use xlink:href="#rim" fill="#404040">
                        <set attributeName="fill" to="#808080" begin="arrowUp.mouseover" end="arrowUp.mouseout"/>
                  </use>
                  <path fill="none" stroke="white" stroke-width="1.5" d="M0,-3.0v7 M-2.5,-0.5L0,-3.0L2.5,-0.5"/>
                </g>
                <g id="arrowRight" xlink:href="#dirArrow" transform="rotate(90) translate(36 -43)" onmousedown="handlePan(1,0)">
                  <use xlink:href="#rim" fill="#404040">
                        <set attributeName="fill" to="#808080" begin="arrowRight.mouseover" end="arrowRight.mouseout"/>
                  </use>
                  <path fill="none" stroke="white" stroke-width="1.5" d="M0,-3.0v7 M-2.5,-0.5L0,-3.0L2.5,-0.5"/>
                </g>
                <g id="arrowDown" xlink:href="#dirArrow" transform="rotate(180) translate(-30 -48)" onmousedown="handlePan(0,1)">
                  <use xlink:href="#rim" fill="#404040">
                        <set attributeName="fill" to="#808080" begin="arrowDown.mouseover" end="arrowDown.mouseout"/>
                  </use>
                  <path fill="none" stroke="white" stroke-width="1.5" d="M0,-3.0v7 M-2.5,-0.5L0,-3.0L2.5,-0.5"/>
                </g>
                <g id="arrowLeft" xlink:href="#dirArrow" transform="rotate(270) translate(-36 17)" onmousedown="handlePan(-1,0)">
                  <use xlink:href="#rim" fill="#404040">
                        <set attributeName="fill" to="#808080" begin="arrowLeft.mouseover" end="arrowLeft.mouseout"/>
                  </use>
                  <path fill="none" stroke="white" stroke-width="1.5" d="M0,-3.0v7 M-2.5,-0.5L0,-3.0L2.5,-0.5"/>
                </g>
        </g>
        <svg viewBox="0 0 15 15" width="100%" height="30px" preserveAspectRatio="xMaxYMin meet">
         <g id="arrow_out" transform="scale(0.3 0.3)">
          <a xlink:href="classHouse__coll__graph_org.svg" target="_base">
           <rect id="button" ry="5" rx="5" y="6" x="6" height="38" width="38"
                fill="#f2f5e9" fill-opacity="0.5" stroke="#606060" stroke-width="1.0"/>
           <path id="arrow"
             d="M 11.500037,31.436501 C 11.940474,20.09759 22.043105,11.32322 32.158766,21.979434 L 37.068811,17.246167 C 37.068811,17.246167 37.088388,32 37.088388,32 L 22.160133,31.978069 C 22.160133,31.978069 26.997745,27.140456 26.997745,27.140456 C 18.528582,18.264221 13.291696,25.230495 11.500037,31.436501 z"
             style="fill:#404040;"/>
          </a>
         </g>
        </svg>
</svg>
