<?xml version="1.0" encoding="UTF-8" standalone="no"?>
<!DOCTYPE svg PUBLIC "-//W3C//DTD SVG 1.1//EN"
 "http://www.w3.org/Graphics/SVG/1.1/DTD/svg11.dtd">
<!-- Generated by graphviz version 2.36.0 (20140111.2315)
 -->
<!-- Title: House.cpp Pages: 1 -->
<svg width="241pt" height="196pt"
 viewBox="0.00 0.00 240.75 196.00" xmlns="http://www.w3.org/2000/svg" xmlns:xlink="http://www.w3.org/1999/xlink">
<g id="graph0" class="graph" transform="scale(1 1) rotate(0) translate(4 192)">
<title>House.cpp</title>
<polygon fill="white" stroke="none" points="-4,4 -4,-192 236.753,-192 236.753,4 -4,4"/>
<!-- Node1 -->
<g id="node1" class="node"><title>Node1</title>
<polygon fill="#bfbfbf" stroke="black" points="107,-168.5 107,-187.5 171,-187.5 171,-168.5 107,-168.5"/>
<text text-anchor="middle" x="139" y="-175.5" font-family="Helvetica,sans-Serif" font-size="10.00">House.cpp</text>
</g>
<!-- Node2 -->
<g id="node2" class="node"><title>Node2</title>
<g id="a_node2"><a xlink:href="House_8h.html" target="_top" xlink:title="House.h">
<polygon fill="white" stroke="black" points="112.5,-112.5 112.5,-131.5 165.5,-131.5 165.5,-112.5 112.5,-112.5"/>
<text text-anchor="middle" x="139" y="-119.5" font-family="Helvetica,sans-Serif" font-size="10.00">House.h</text>
</a>
</g>
</g>
<!-- Node1&#45;&gt;Node2 -->
<g id="edge1" class="edge"><title>Node1&#45;&gt;Node2</title>
<path fill="none" stroke="midnightblue" d="M139,-168.083C139,-161.006 139,-150.861 139,-141.986"/>
<polygon fill="midnightblue" stroke="midnightblue" points="142.5,-141.751 139,-131.751 135.5,-141.751 142.5,-141.751"/>
</g>
<!-- Node3 -->
<g id="node3" class="node"><title>Node3</title>
<polygon fill="white" stroke="#bfbfbf" points="0,-0.5 0,-19.5 54,-19.5 54,-0.5 0,-0.5"/>
<text text-anchor="middle" x="27" y="-7.5" font-family="Helvetica,sans-Serif" font-size="10.00">iostream</text>
</g>
<!-- Node2&#45;&gt;Node3 -->
<g id="edge2" class="edge"><title>Node2&#45;&gt;Node3</title>
<path fill="none" stroke="midnightblue" d="M112.465,-114.551C91.5514,-108.139 63.1474,-96.265 46,-76 34.974,-62.9693 30.3432,-43.812 28.4002,-29.6687"/>
<polygon fill="midnightblue" stroke="midnightblue" points="31.8699,-29.1949 27.3474,-19.6138 24.9079,-29.9239 31.8699,-29.1949"/>
</g>
<!-- Node4 -->
<g id="node4" class="node"><title>Node4</title>
<polygon fill="white" stroke="#bfbfbf" points="179.5,-0.5 179.5,-19.5 220.5,-19.5 220.5,-0.5 179.5,-0.5"/>
<text text-anchor="middle" x="200" y="-7.5" font-family="Helvetica,sans-Serif" font-size="10.00">string</text>
</g>
<!-- Node2&#45;&gt;Node4 -->
<g id="edge3" class="edge"><title>Node2&#45;&gt;Node4</title>
<path fill="none" stroke="midnightblue" d="M165.853,-115.592C187.072,-109.753 215.316,-98.1418 229,-76 238.684,-60.3314 227.258,-40.8718 216.023,-27.3483"/>
<polygon fill="midnightblue" stroke="midnightblue" points="218.522,-24.8934 209.242,-19.7822 213.309,-29.5651 218.522,-24.8934"/>
</g>
<!-- Node5 -->
<g id="node5" class="node"><title>Node5</title>
<polygon fill="white" stroke="#bfbfbf" points="124.5,-56.5 124.5,-75.5 153.5,-75.5 153.5,-56.5 124.5,-56.5"/>
<text text-anchor="middle" x="139" y="-63.5" font-family="Helvetica,sans-Serif" font-size="10.00">list</text>
</g>
<!-- Node2&#45;&gt;Node5 -->
<g id="edge4" class="edge"><title>Node2&#45;&gt;Node5</title>
<path fill="none" stroke="midnightblue" d="M139,-112.083C139,-105.006 139,-94.8611 139,-85.9865"/>
<polygon fill="midnightblue" stroke="midnightblue" points="142.5,-85.751 139,-75.7511 135.5,-85.7511 142.5,-85.751"/>
</g>
<!-- Node6 -->
<g id="node6" class="node"><title>Node6</title>
<polygon fill="white" stroke="#bfbfbf" points="171.5,-56.5 171.5,-75.5 220.5,-75.5 220.5,-56.5 171.5,-56.5"/>
<text text-anchor="middle" x="196" y="-63.5" font-family="Helvetica,sans-Serif" font-size="10.00">cassert</text>
</g>
<!-- Node2&#45;&gt;Node6 -->
<g id="edge5" class="edge"><title>Node2&#45;&gt;Node6</title>
<path fill="none" stroke="midnightblue" d="M148.158,-112.324C156.501,-104.42 169.032,-92.5482 179.177,-82.9377"/>
<polygon fill="midnightblue" stroke="midnightblue" points="181.823,-85.2522 186.675,-75.8339 177.009,-80.1705 181.823,-85.2522"/>
</g>
<!-- Node7 -->
<g id="node7" class="node"><title>Node7</title>
<g id="a_node7"><a xlink:href="Room_8h.html" target="_top" xlink:title="Room.h">
<polygon fill="white" stroke="black" points="55.5,-56.5 55.5,-75.5 106.5,-75.5 106.5,-56.5 55.5,-56.5"/>
<text text-anchor="middle" x="81" y="-63.5" font-family="Helvetica,sans-Serif" font-size="10.00">Room.h</text>
</a>
</g>
</g>
<!-- Node2&#45;&gt;Node7 -->
<g id="edge6" class="edge"><title>Node2&#45;&gt;Node7</title>
<path fill="none" stroke="midnightblue" d="M129.681,-112.324C121.107,-104.341 108.188,-92.3128 97.8124,-82.6529"/>
<polygon fill="midnightblue" stroke="midnightblue" points="100.192,-80.0865 90.4883,-75.8339 95.4223,-85.2098 100.192,-80.0865"/>
</g>
<!-- Node7&#45;&gt;Node3 -->
<g id="edge7" class="edge"><title>Node7&#45;&gt;Node3</title>
<path fill="none" stroke="midnightblue" d="M72.083,-56.083C64.2195,-48.2195 52.5688,-36.5688 43.0813,-27.0813"/>
<polygon fill="midnightblue" stroke="midnightblue" points="45.2971,-24.3473 35.7511,-19.7511 40.3473,-29.2971 45.2971,-24.3473"/>
</g>
<!-- Node7&#45;&gt;Node4 -->
<g id="edge8" class="edge"><title>Node7&#45;&gt;Node4</title>
<path fill="none" stroke="midnightblue" d="M99.8559,-56.4435C119.266,-47.6356 149.73,-33.8116 171.965,-23.722"/>
<polygon fill="midnightblue" stroke="midnightblue" points="173.572,-26.836 181.232,-19.5164 170.68,-20.4615 173.572,-26.836"/>
</g>
<!-- Node8 -->
<g id="node8" class="node"><title>Node8</title>
<polygon fill="white" stroke="#bfbfbf" points="72,-0.5 72,-19.5 112,-19.5 112,-0.5 72,-0.5"/>
<text text-anchor="middle" x="92" y="-7.5" font-family="Helvetica,sans-Serif" font-size="10.00">utility</text>
</g>
<!-- Node7&#45;&gt;Node8 -->
<g id="edge9" class="edge"><title>Node7&#45;&gt;Node8</title>
<path fill="none" stroke="midnightblue" d="M82.8164,-56.083C84.2741,-48.9272 86.3706,-38.6353 88.1925,-29.6911"/>
<polygon fill="midnightblue" stroke="midnightblue" points="91.6508,-30.2485 90.2174,-19.7511 84.7917,-28.8512 91.6508,-30.2485"/>
</g>
</g>
</svg>
