<?xml version="1.0" encoding="UTF-8" standalone="no"?>
<!DOCTYPE svg PUBLIC "-//W3C//DTD SVG 1.1//EN"
 "http://www.w3.org/Graphics/SVG/1.1/DTD/svg11.dtd">
<!-- Generated by graphviz version 2.36.0 (20140111.2315)
 -->
<!-- Title: House::iterator Pages: 1 -->
<svg width="219pt" height="682pt"
 viewBox="0.00 0.00 219.00 682.00" xmlns="http://www.w3.org/2000/svg" xmlns:xlink="http://www.w3.org/1999/xlink">
<g id="graph0" class="graph" transform="scale(1 1) rotate(0) translate(4 678)">
<title>House::iterator</title>
<polygon fill="white" stroke="none" points="-4,4 -4,-678 215,-678 215,4 -4,4"/>
<!-- Node1 -->
<g id="node1" class="node"><title>Node1</title>
<polygon fill="#bfbfbf" stroke="black" points="71.5,-0.5 71.5,-123.5 152.5,-123.5 152.5,-0.5 71.5,-0.5"/>
<text text-anchor="middle" x="112" y="-111.5" font-family="Helvetica,sans-Serif" font-size="10.00">House::iterator</text>
<polyline fill="none" stroke="black" points="71.5,-104.5 152.5,-104.5 "/>
<text text-anchor="middle" x="112" y="-92.5" font-family="Helvetica,sans-Serif" font-size="10.00"> </text>
<polyline fill="none" stroke="black" points="71.5,-85.5 152.5,-85.5 "/>
<text text-anchor="start" x="79.5" y="-73.5" font-family="Helvetica,sans-Serif" font-size="10.00">+ iterator()</text>
<text text-anchor="start" x="79.5" y="-62.5" font-family="Helvetica,sans-Serif" font-size="10.00">+ iterator()</text>
<text text-anchor="start" x="79.5" y="-51.5" font-family="Helvetica,sans-Serif" font-size="10.00">+ operator*()</text>
<text text-anchor="start" x="79.5" y="-40.5" font-family="Helvetica,sans-Serif" font-size="10.00">+ operator++()</text>
<text text-anchor="start" x="79.5" y="-29.5" font-family="Helvetica,sans-Serif" font-size="10.00">+ operator++()</text>
<text text-anchor="start" x="79.5" y="-18.5" font-family="Helvetica,sans-Serif" font-size="10.00">+ operator==()</text>
<text text-anchor="start" x="79.5" y="-7.5" font-family="Helvetica,sans-Serif" font-size="10.00">+ operator!=()</text>
</g>
<!-- Node2 -->
<g id="node2" class="node"><title>Node2</title>
<g id="a_node2"><a xlink:href="structHouse_1_1Node.html" target="_top" xlink:title="{House::Node\n||+ Node()\l}">
<polygon fill="white" stroke="black" points="75,-172.5 75,-229.5 149,-229.5 149,-172.5 75,-172.5"/>
<text text-anchor="middle" x="112" y="-217.5" font-family="Helvetica,sans-Serif" font-size="10.00">House::Node</text>
<polyline fill="none" stroke="black" points="75,-210.5 149,-210.5 "/>
<text text-anchor="middle" x="112" y="-198.5" font-family="Helvetica,sans-Serif" font-size="10.00"> </text>
<polyline fill="none" stroke="black" points="75,-191.5 149,-191.5 "/>
<text text-anchor="start" x="83" y="-179.5" font-family="Helvetica,sans-Serif" font-size="10.00">+ Node()</text>
</a>
</g>
</g>
<!-- Node2&#45;&gt;Node1 -->
<g id="edge1" class="edge"><title>Node2&#45;&gt;Node1</title>
<path fill="none" stroke="#404040" d="M112,-172.276C112,-161.501 112,-148.609 112,-135.521"/>
<polygon fill="none" stroke="#404040" points="112,-135.501 108,-129.501 112,-123.501 116,-129.501 112,-135.501"/>
<text text-anchor="middle" x="146.5" y="-145.5" font-family="Helvetica,sans-Serif" font-size="10.00"> &#45;pseudoPointer</text>
</g>
<!-- Node2&#45;&gt;Node2 -->
<g id="edge2" class="edge"><title>Node2&#45;&gt;Node2</title>
<path fill="none" stroke="#404040" d="M149.015,-210.69C159.21,-210.222 167,-206.992 167,-201 167,-197.723 164.67,-195.272 160.891,-193.647"/>
<polygon fill="none" stroke="#404040" points="160.789,-193.627 154.13,-196.393 149.015,-191.31 155.675,-188.544 160.789,-193.627"/>
<text text-anchor="middle" x="181" y="-198.5" font-family="Helvetica,sans-Serif" font-size="10.00"> +next</text>
</g>
<!-- Node3 -->
<g id="node3" class="node"><title>Node3</title>
<g id="a_node3"><a xlink:href="classRoom.html" target="_top" xlink:title="{Room\n|+ UNITS\l&#45; name\l|+ Room()\l+ Room()\l+ Room()\l+ Room()\l+ getDimensions()\l+ setDimensions()\l+ getFlooring()\l+ setFlooring()\l+ setName()\l+ getName()\l+ area()\l+ flooringCost()\l+ display()\l+ operator==()\l+ operator\&lt;()\l}">
<polygon fill="white" stroke="black" points="63.5,-279 63.5,-501 160.5,-501 160.5,-279 63.5,-279"/>
<text text-anchor="middle" x="112" y="-489" font-family="Helvetica,sans-Serif" font-size="10.00">Room</text>
<polyline fill="none" stroke="black" points="63.5,-482 160.5,-482 "/>
<text text-anchor="start" x="71.5" y="-470" font-family="Helvetica,sans-Serif" font-size="10.00">+ UNITS</text>
<text text-anchor="start" x="71.5" y="-459" font-family="Helvetica,sans-Serif" font-size="10.00">&#45; name</text>
<polyline fill="none" stroke="black" points="63.5,-452 160.5,-452 "/>
<text text-anchor="start" x="71.5" y="-440" font-family="Helvetica,sans-Serif" font-size="10.00">+ Room()</text>
<text text-anchor="start" x="71.5" y="-429" font-family="Helvetica,sans-Serif" font-size="10.00">+ Room()</text>
<text text-anchor="start" x="71.5" y="-418" font-family="Helvetica,sans-Serif" font-size="10.00">+ Room()</text>
<text text-anchor="start" x="71.5" y="-407" font-family="Helvetica,sans-Serif" font-size="10.00">+ Room()</text>
<text text-anchor="start" x="71.5" y="-396" font-family="Helvetica,sans-Serif" font-size="10.00">+ getDimensions()</text>
<text text-anchor="start" x="71.5" y="-385" font-family="Helvetica,sans-Serif" font-size="10.00">+ setDimensions()</text>
<text text-anchor="start" x="71.5" y="-374" font-family="Helvetica,sans-Serif" font-size="10.00">+ getFlooring()</text>
<text text-anchor="start" x="71.5" y="-363" font-family="Helvetica,sans-Serif" font-size="10.00">+ setFlooring()</text>
<text text-anchor="start" x="71.5" y="-352" font-family="Helvetica,sans-Serif" font-size="10.00">+ setName()</text>
<text text-anchor="start" x="71.5" y="-341" font-family="Helvetica,sans-Serif" font-size="10.00">+ getName()</text>
<text text-anchor="start" x="71.5" y="-330" font-family="Helvetica,sans-Serif" font-size="10.00">+ area()</text>
<text text-anchor="start" x="71.5" y="-319" font-family="Helvetica,sans-Serif" font-size="10.00">+ flooringCost()</text>
<text text-anchor="start" x="71.5" y="-308" font-family="Helvetica,sans-Serif" font-size="10.00">+ display()</text>
<text text-anchor="start" x="71.5" y="-297" font-family="Helvetica,sans-Serif" font-size="10.00">+ operator==()</text>
<text text-anchor="start" x="71.5" y="-286" font-family="Helvetica,sans-Serif" font-size="10.00">+ operator&lt;()</text>
</a>
</g>
</g>
<!-- Node3&#45;&gt;Node2 -->
<g id="edge3" class="edge"><title>Node3&#45;&gt;Node2</title>
<path fill="none" stroke="#404040" d="M112,-278.87C112,-265.762 112,-253.105 112,-241.975"/>
<polygon fill="none" stroke="#404040" points="112,-241.673 108,-235.673 112,-229.673 116,-235.673 112,-241.673"/>
<text text-anchor="middle" x="126" y="-251.5" font-family="Helvetica,sans-Serif" font-size="10.00"> +data</text>
</g>
<!-- Node4 -->
<g id="node4" class="node"><title>Node4</title>
<g id="a_node4"><a xlink:href="classRoom_1_1DimensionSet.html" target="_top" xlink:title="{Room::DimensionSet\n|&#45; length\l&#45; width\l|+ DimensionSet()\l+ DimensionSet()\l+ setLength()\l+ getLength()\l+ setWidth()\l+ getWidth()\l}">
<polygon fill="white" stroke="black" points="0,-550.5 0,-673.5 110,-673.5 110,-550.5 0,-550.5"/>
<text text-anchor="middle" x="55" y="-661.5" font-family="Helvetica,sans-Serif" font-size="10.00">Room::DimensionSet</text>
<polyline fill="none" stroke="black" points="0,-654.5 110,-654.5 "/>
<text text-anchor="start" x="8" y="-642.5" font-family="Helvetica,sans-Serif" font-size="10.00">&#45; length</text>
<text text-anchor="start" x="8" y="-631.5" font-family="Helvetica,sans-Serif" font-size="10.00">&#45; width</text>
<polyline fill="none" stroke="black" points="0,-624.5 110,-624.5 "/>
<text text-anchor="start" x="8" y="-612.5" font-family="Helvetica,sans-Serif" font-size="10.00">+ DimensionSet()</text>
<text text-anchor="start" x="8" y="-601.5" font-family="Helvetica,sans-Serif" font-size="10.00">+ DimensionSet()</text>
<text text-anchor="start" x="8" y="-590.5" font-family="Helvetica,sans-Serif" font-size="10.00">+ setLength()</text>
<text text-anchor="start" x="8" y="-579.5" font-family="Helvetica,sans-Serif" font-size="10.00">+ getLength()</text>
<text text-anchor="start" x="8" y="-568.5" font-family="Helvetica,sans-Serif" font-size="10.00">+ setWidth()</text>
<text text-anchor="start" x="8" y="-557.5" font-family="Helvetica,sans-Serif" font-size="10.00">+ getWidth()</text>
</a>
</g>
</g>
<!-- Node4&#45;&gt;Node3 -->
<g id="edge4" class="edge"><title>Node4&#45;&gt;Node3</title>
<path fill="none" stroke="#404040" d="M70.7264,-550.302C73.7539,-538.617 77.0239,-525.996 80.3518,-513.151"/>
<polygon fill="none" stroke="#404040" points="80.4093,-512.929 78.0421,-506.117 83.4191,-501.312 85.7864,-508.124 80.4093,-512.929"/>
<text text-anchor="middle" x="107" y="-523.5" font-family="Helvetica,sans-Serif" font-size="10.00"> &#45;dimensions</text>
</g>
<!-- Node5 -->
<g id="node5" class="node"><title>Node5</title>
<g id="a_node5"><a xlink:href="structRoom_1_1Flooring.html" target="_top" xlink:title="{Room::Flooring\n|+ type\l+ unitCost\l|+ Flooring()\l+ Flooring()\l}">
<polygon fill="white" stroke="black" points="128.5,-572.5 128.5,-651.5 211.5,-651.5 211.5,-572.5 128.5,-572.5"/>
<text text-anchor="middle" x="170" y="-639.5" font-family="Helvetica,sans-Serif" font-size="10.00">Room::Flooring</text>
<polyline fill="none" stroke="black" points="128.5,-632.5 211.5,-632.5 "/>
<text text-anchor="start" x="136.5" y="-620.5" font-family="Helvetica,sans-Serif" font-size="10.00">+ type</text>
<text text-anchor="start" x="136.5" y="-609.5" font-family="Helvetica,sans-Serif" font-size="10.00">+ unitCost</text>
<polyline fill="none" stroke="black" points="128.5,-602.5 211.5,-602.5 "/>
<text text-anchor="start" x="136.5" y="-590.5" font-family="Helvetica,sans-Serif" font-size="10.00">+ Flooring()</text>
<text text-anchor="start" x="136.5" y="-579.5" font-family="Helvetica,sans-Serif" font-size="10.00">+ Flooring()</text>
</a>
</g>
</g>
<!-- Node5&#45;&gt;Node3 -->
<g id="edge5" class="edge"><title>Node5&#45;&gt;Node3</title>
<path fill="none" stroke="#404040" d="M159.831,-572.427C155.369,-555.505 149.861,-534.609 144.187,-513.089"/>
<polygon fill="none" stroke="#404040" points="144.176,-513.048 138.779,-508.266 141.117,-501.444 146.515,-506.226 144.176,-513.048"/>
<text text-anchor="middle" x="167" y="-523.5" font-family="Helvetica,sans-Serif" font-size="10.00"> &#45;flooring</text>
</g>
</g>
</svg>
