<?xml version="1.0" encoding="UTF-8" standalone="no"?>
<!DOCTYPE svg PUBLIC "-//W3C//DTD SVG 1.1//EN"
 "http://www.w3.org/Graphics/SVG/1.1/DTD/svg11.dtd">
<!-- Generated by graphviz version 2.36.0 (20140111.2315)
 -->
<!-- Title: updateRoom.cpp Pages: 1 -->
<svg width="608pt" height="196pt"
 viewBox="0.00 0.00 608.10 196.00" xmlns="http://www.w3.org/2000/svg" xmlns:xlink="http://www.w3.org/1999/xlink">
<g id="graph0" class="graph" transform="scale(1 1) rotate(0) translate(4 192)">
<title>updateRoom.cpp</title>
<polygon fill="white" stroke="none" points="-4,4 -4,-192 604.104,-192 604.104,4 -4,4"/>
<!-- Node1 -->
<g id="node1" class="node"><title>Node1</title>
<polygon fill="#bfbfbf" stroke="black" points="312.604,-168.5 312.604,-187.5 403.604,-187.5 403.604,-168.5 312.604,-168.5"/>
<text text-anchor="middle" x="358.104" y="-175.5" font-family="Helvetica,sans-Serif" font-size="10.00">updateRoom.cpp</text>
</g>
<!-- Node2 -->
<g id="node2" class="node"><title>Node2</title>
<polygon fill="white" stroke="#bfbfbf" points="97.1036,-0.5 97.1036,-19.5 151.104,-19.5 151.104,-0.5 97.1036,-0.5"/>
<text text-anchor="middle" x="124.104" y="-7.5" font-family="Helvetica,sans-Serif" font-size="10.00">iostream</text>
</g>
<!-- Node1&#45;&gt;Node2 -->
<g id="edge1" class="edge"><title>Node1&#45;&gt;Node2</title>
<path fill="none" stroke="midnightblue" d="M312.409,-171.185C224.967,-158.968 39.5534,-127.441 5.10357,-76 -17.4524,-42.319 44.1762,-24.5395 86.9432,-16.5083"/>
<polygon fill="midnightblue" stroke="midnightblue" points="87.5752,-19.9509 96.8121,-14.7616 86.3552,-13.0581 87.5752,-19.9509"/>
</g>
<!-- Node3 -->
<g id="node3" class="node"><title>Node3</title>
<polygon fill="white" stroke="#bfbfbf" points="424.104,-112.5 424.104,-131.5 474.104,-131.5 474.104,-112.5 424.104,-112.5"/>
<text text-anchor="middle" x="449.104" y="-119.5" font-family="Helvetica,sans-Serif" font-size="10.00">iomanip</text>
</g>
<!-- Node1&#45;&gt;Node3 -->
<g id="edge2" class="edge"><title>Node1&#45;&gt;Node3</title>
<path fill="none" stroke="midnightblue" d="M372.724,-168.324C387.053,-159.822 409.116,-146.729 425.852,-136.797"/>
<polygon fill="midnightblue" stroke="midnightblue" points="427.705,-139.768 434.519,-131.655 424.133,-133.748 427.705,-139.768"/>
</g>
<!-- Node4 -->
<g id="node4" class="node"><title>Node4</title>
<polygon fill="white" stroke="#bfbfbf" points="492.604,-112.5 492.604,-131.5 537.604,-131.5 537.604,-112.5 492.604,-112.5"/>
<text text-anchor="middle" x="515.104" y="-119.5" font-family="Helvetica,sans-Serif" font-size="10.00">cstdlib</text>
</g>
<!-- Node1&#45;&gt;Node4 -->
<g id="edge3" class="edge"><title>Node1&#45;&gt;Node4</title>
<path fill="none" stroke="midnightblue" d="M382.981,-168.444C410.014,-159.145 453.3,-144.257 482.908,-134.073"/>
<polygon fill="midnightblue" stroke="midnightblue" points="484.064,-137.377 492.382,-130.815 481.787,-130.758 484.064,-137.377"/>
</g>
<!-- Node5 -->
<g id="node5" class="node"><title>Node5</title>
<polygon fill="white" stroke="#bfbfbf" points="556.104,-112.5 556.104,-131.5 600.104,-131.5 600.104,-112.5 556.104,-112.5"/>
<text text-anchor="middle" x="578.104" y="-119.5" font-family="Helvetica,sans-Serif" font-size="10.00">cmath</text>
</g>
<!-- Node1&#45;&gt;Node5 -->
<g id="edge4" class="edge"><title>Node1&#45;&gt;Node5</title>
<path fill="none" stroke="midnightblue" d="M395.664,-168.466C433.691,-159.719 494.137,-145.522 546.104,-132 546.205,-131.974 546.306,-131.947 546.408,-131.921"/>
<polygon fill="midnightblue" stroke="midnightblue" points="547.354,-135.291 556.1,-129.311 545.534,-128.531 547.354,-135.291"/>
</g>
<!-- Node6 -->
<g id="node6" class="node"><title>Node6</title>
<polygon fill="white" stroke="#bfbfbf" points="251.604,-0.5 251.604,-19.5 292.604,-19.5 292.604,-0.5 251.604,-0.5"/>
<text text-anchor="middle" x="272.104" y="-7.5" font-family="Helvetica,sans-Serif" font-size="10.00">string</text>
</g>
<!-- Node1&#45;&gt;Node6 -->
<g id="edge5" class="edge"><title>Node1&#45;&gt;Node6</title>
<path fill="none" stroke="midnightblue" d="M358.877,-168.273C360.309,-147.171 361.358,-92.4337 338.104,-56 329.458,-42.4543 315.117,-31.9515 302.007,-24.5123"/>
<polygon fill="midnightblue" stroke="midnightblue" points="303.256,-21.2134 292.779,-19.6371 299.986,-27.4028 303.256,-21.2134"/>
</g>
<!-- Node7 -->
<g id="node7" class="node"><title>Node7</title>
<polygon fill="white" stroke="#bfbfbf" points="354.104,-0.5 354.104,-19.5 394.104,-19.5 394.104,-0.5 354.104,-0.5"/>
<text text-anchor="middle" x="374.104" y="-7.5" font-family="Helvetica,sans-Serif" font-size="10.00">utility</text>
</g>
<!-- Node1&#45;&gt;Node7 -->
<g id="edge6" class="edge"><title>Node1&#45;&gt;Node7</title>
<path fill="none" stroke="midnightblue" d="M361.658,-168.215C365.08,-159.272 370.03,-144.926 372.104,-132 377.852,-96.167 376.754,-53.6014 375.431,-29.7028"/>
<polygon fill="midnightblue" stroke="midnightblue" points="378.915,-29.3414 374.793,-19.5816 371.929,-29.7821 378.915,-29.3414"/>
</g>
<!-- Node8 -->
<g id="node8" class="node"><title>Node8</title>
<g id="a_node8"><a xlink:href="utilities_8h.html" target="_top" xlink:title="utilities.h">
<polygon fill="white" stroke="black" points="14.1036,-56.5 14.1036,-75.5 70.1036,-75.5 70.1036,-56.5 14.1036,-56.5"/>
<text text-anchor="middle" x="42.1036" y="-63.5" font-family="Helvetica,sans-Serif" font-size="10.00">utilities.h</text>
</a>
</g>
</g>
<!-- Node1&#45;&gt;Node8 -->
<g id="edge7" class="edge"><title>Node1&#45;&gt;Node8</title>
<path fill="none" stroke="midnightblue" d="M322.304,-168.463C289.206,-160.24 238.83,-146.882 196.104,-132 150.85,-116.238 99.9016,-93.7652 69.4341,-79.7975"/>
<polygon fill="midnightblue" stroke="midnightblue" points="70.8414,-76.5922 60.2949,-75.5806 67.9086,-82.9483 70.8414,-76.5922"/>
</g>
<!-- Node9 -->
<g id="node9" class="node"><title>Node9</title>
<g id="a_node9"><a xlink:href="Room_8h.html" target="_top" xlink:title="Room.h">
<polygon fill="white" stroke="black" points="278.604,-56.5 278.604,-75.5 329.604,-75.5 329.604,-56.5 278.604,-56.5"/>
<text text-anchor="middle" x="304.104" y="-63.5" font-family="Helvetica,sans-Serif" font-size="10.00">Room.h</text>
</a>
</g>
</g>
<!-- Node1&#45;&gt;Node9 -->
<g id="edge10" class="edge"><title>Node1&#45;&gt;Node9</title>
<path fill="none" stroke="midnightblue" d="M353.866,-168.368C345.034,-150.376 324.501,-108.55 312.757,-84.6267"/>
<polygon fill="midnightblue" stroke="midnightblue" points="315.87,-83.0257 308.321,-75.5914 309.586,-86.1105 315.87,-83.0257"/>
</g>
<!-- Node10 -->
<g id="node10" class="node"><title>Node10</title>
<g id="a_node10"><a xlink:href="House_8h.html" target="_top" xlink:title="House.h">
<polygon fill="white" stroke="black" points="204.604,-112.5 204.604,-131.5 257.604,-131.5 257.604,-112.5 204.604,-112.5"/>
<text text-anchor="middle" x="231.104" y="-119.5" font-family="Helvetica,sans-Serif" font-size="10.00">House.h</text>
</a>
</g>
</g>
<!-- Node1&#45;&gt;Node10 -->
<g id="edge14" class="edge"><title>Node1&#45;&gt;Node10</title>
<path fill="none" stroke="midnightblue" d="M337.98,-168.444C317.079,-159.557 284.169,-145.563 260.387,-135.451"/>
<polygon fill="midnightblue" stroke="midnightblue" points="261.705,-132.208 251.133,-131.516 258.966,-138.65 261.705,-132.208"/>
</g>
<!-- Node8&#45;&gt;Node2 -->
<g id="edge8" class="edge"><title>Node8&#45;&gt;Node2</title>
<path fill="none" stroke="midnightblue" d="M55.2783,-56.324C67.9503,-47.979 87.3369,-35.2122 102.309,-25.3524"/>
<polygon fill="midnightblue" stroke="midnightblue" points="104.535,-28.0776 110.962,-19.6545 100.685,-22.2313 104.535,-28.0776"/>
</g>
<!-- Node8&#45;&gt;Node6 -->
<g id="edge9" class="edge"><title>Node8&#45;&gt;Node6</title>
<path fill="none" stroke="midnightblue" d="M70.391,-57.8798C72.9971,-57.2384 75.5983,-56.6037 78.1036,-56 135.711,-42.1188 203.136,-26.6548 241.413,-17.9489"/>
<polygon fill="midnightblue" stroke="midnightblue" points="242.428,-21.3077 251.404,-15.6796 240.877,-14.4816 242.428,-21.3077"/>
</g>
<!-- Node9&#45;&gt;Node2 -->
<g id="edge11" class="edge"><title>Node9&#45;&gt;Node2</title>
<path fill="none" stroke="midnightblue" d="M278.314,-57.2631C247.613,-48.0527 196.111,-32.6021 161.151,-22.1143"/>
<polygon fill="midnightblue" stroke="midnightblue" points="161.902,-18.6855 151.318,-19.1643 159.89,-25.3903 161.902,-18.6855"/>
</g>
<!-- Node9&#45;&gt;Node6 -->
<g id="edge12" class="edge"><title>Node9&#45;&gt;Node6</title>
<path fill="none" stroke="midnightblue" d="M298.819,-56.083C294.393,-48.6127 287.94,-37.7244 282.486,-28.5199"/>
<polygon fill="midnightblue" stroke="midnightblue" points="285.398,-26.5697 277.289,-19.7511 279.376,-30.1383 285.398,-26.5697"/>
</g>
<!-- Node9&#45;&gt;Node7 -->
<g id="edge13" class="edge"><title>Node9&#45;&gt;Node7</title>
<path fill="none" stroke="midnightblue" d="M315.35,-56.324C325.901,-48.1849 341.904,-35.8395 354.546,-26.0874"/>
<polygon fill="midnightblue" stroke="midnightblue" points="356.872,-28.7132 362.652,-19.8339 352.597,-23.1707 356.872,-28.7132"/>
</g>
<!-- Node10&#45;&gt;Node2 -->
<g id="edge15" class="edge"><title>Node10&#45;&gt;Node2</title>
<path fill="none" stroke="midnightblue" d="M227.362,-112.184C221.388,-98.8582 208.662,-73.3062 192.104,-56 180.017,-43.3674 163.767,-32.4504 150.182,-24.5337"/>
<polygon fill="midnightblue" stroke="midnightblue" points="151.722,-21.3846 141.288,-19.548 148.3,-27.4908 151.722,-21.3846"/>
</g>
<!-- Node10&#45;&gt;Node6 -->
<g id="edge16" class="edge"><title>Node10&#45;&gt;Node6</title>
<path fill="none" stroke="midnightblue" d="M234.321,-112.368C240.967,-94.5366 256.339,-53.2953 265.293,-29.2717"/>
<polygon fill="midnightblue" stroke="midnightblue" points="268.688,-30.1841 268.901,-19.5914 262.129,-27.7393 268.688,-30.1841"/>
</g>
<!-- Node10&#45;&gt;Node9 -->
<g id="edge19" class="edge"><title>Node10&#45;&gt;Node9</title>
<path fill="none" stroke="midnightblue" d="M242.832,-112.324C253.941,-104.107 270.846,-91.6017 284.087,-81.8069"/>
<polygon fill="midnightblue" stroke="midnightblue" points="286.203,-84.5948 292.161,-75.8339 282.04,-78.9671 286.203,-84.5948"/>
</g>
<!-- Node11 -->
<g id="node11" class="node"><title>Node11</title>
<polygon fill="white" stroke="#bfbfbf" points="87.6036,-56.5 87.6036,-75.5 116.604,-75.5 116.604,-56.5 87.6036,-56.5"/>
<text text-anchor="middle" x="102.104" y="-63.5" font-family="Helvetica,sans-Serif" font-size="10.00">list</text>
</g>
<!-- Node10&#45;&gt;Node11 -->
<g id="edge17" class="edge"><title>Node10&#45;&gt;Node11</title>
<path fill="none" stroke="midnightblue" d="M210.663,-112.444C187.685,-102.825 150.416,-87.2238 126.081,-77.0372"/>
<polygon fill="midnightblue" stroke="midnightblue" points="127.407,-73.7978 116.831,-73.1649 124.704,-80.2549 127.407,-73.7978"/>
</g>
<!-- Node12 -->
<g id="node12" class="node"><title>Node12</title>
<polygon fill="white" stroke="#bfbfbf" points="134.604,-56.5 134.604,-75.5 183.604,-75.5 183.604,-56.5 134.604,-56.5"/>
<text text-anchor="middle" x="159.104" y="-63.5" font-family="Helvetica,sans-Serif" font-size="10.00">cassert</text>
</g>
<!-- Node10&#45;&gt;Node12 -->
<g id="edge18" class="edge"><title>Node10&#45;&gt;Node12</title>
<path fill="none" stroke="midnightblue" d="M219.536,-112.324C208.683,-104.185 192.223,-91.8395 179.22,-82.0874"/>
<polygon fill="midnightblue" stroke="midnightblue" points="180.982,-79.0339 170.882,-75.8339 176.782,-84.6339 180.982,-79.0339"/>
</g>
</g>
</svg>
