<?xml version="1.0" encoding="UTF-8" standalone="no"?>
<!DOCTYPE svg PUBLIC "-//W3C//DTD SVG 1.1//EN"
 "http://www.w3.org/Graphics/SVG/1.1/DTD/svg11.dtd">
<!-- Generated by graphviz version 2.36.0 (20140111.2315)
 -->
<!-- Title: utilities.h Pages: 1 -->
<svg width="264pt" height="84pt"
 viewBox="0.00 0.00 264.00 84.00" xmlns="http://www.w3.org/2000/svg" xmlns:xlink="http://www.w3.org/1999/xlink">
<g id="graph0" class="graph" transform="scale(1 1) rotate(0) translate(4 80)">
<title>utilities.h</title>
<polygon fill="white" stroke="none" points="-4,4 -4,-80 260,-80 260,4 -4,4"/>
<!-- Node1 -->
<g id="node1" class="node"><title>Node1</title>
<polygon fill="#bfbfbf" stroke="black" points="98,-56.5 98,-75.5 154,-75.5 154,-56.5 98,-56.5"/>
<text text-anchor="middle" x="126" y="-63.5" font-family="Helvetica,sans-Serif" font-size="10.00">utilities.h</text>
</g>
<!-- Node2 -->
<g id="node2" class="node"><title>Node2</title>
<g id="a_node2"><a xlink:href="Room_8cpp.html" target="_top" xlink:title="Room.cpp">
<polygon fill="white" stroke="black" points="0,-0.5 0,-19.5 62,-19.5 62,-0.5 0,-0.5"/>
<text text-anchor="middle" x="31" y="-7.5" font-family="Helvetica,sans-Serif" font-size="10.00">Room.cpp</text>
</a>
</g>
</g>
<!-- Node1&#45;&gt;Node2 -->
<g id="edge1" class="edge"><title>Node1&#45;&gt;Node2</title>
<path fill="none" stroke="midnightblue" d="M101.682,-51.1774C84.2012,-41.2407 61.1699,-28.1492 46.2255,-19.6545"/>
<polygon fill="midnightblue" stroke="midnightblue" points="100.313,-54.425 110.737,-56.324 103.773,-48.3395 100.313,-54.425"/>
</g>
<!-- Node3 -->
<g id="node3" class="node"><title>Node3</title>
<g id="a_node3"><a xlink:href="updateRoom_8cpp.html" target="_top" xlink:title="updateRoom.cpp">
<polygon fill="white" stroke="black" points="80.5,-0.5 80.5,-19.5 171.5,-19.5 171.5,-0.5 80.5,-0.5"/>
<text text-anchor="middle" x="126" y="-7.5" font-family="Helvetica,sans-Serif" font-size="10.00">updateRoom.cpp</text>
</a>
</g>
</g>
<!-- Node1&#45;&gt;Node3 -->
<g id="edge2" class="edge"><title>Node1&#45;&gt;Node3</title>
<path fill="none" stroke="midnightblue" d="M126,-45.8045C126,-36.9102 126,-26.7798 126,-19.7511"/>
<polygon fill="midnightblue" stroke="midnightblue" points="122.5,-46.083 126,-56.083 129.5,-46.083 122.5,-46.083"/>
</g>
<!-- Node4 -->
<g id="node4" class="node"><title>Node4</title>
<g id="a_node4"><a xlink:href="utilities_8cpp.html" target="_top" xlink:title="utilities.cpp">
<polygon fill="white" stroke="black" points="190,-0.5 190,-19.5 256,-19.5 256,-0.5 190,-0.5"/>
<text text-anchor="middle" x="223" y="-7.5" font-family="Helvetica,sans-Serif" font-size="10.00">utilities.cpp</text>
</a>
</g>
</g>
<!-- Node1&#45;&gt;Node4 -->
<g id="edge3" class="edge"><title>Node1&#45;&gt;Node4</title>
<path fill="none" stroke="midnightblue" d="M150.335,-51.4526C168.243,-41.4835 192.054,-28.2279 207.454,-19.6545"/>
<polygon fill="midnightblue" stroke="midnightblue" points="148.62,-48.4018 141.585,-56.324 152.025,-54.5179 148.62,-48.4018"/>
</g>
</g>
</svg>
