<?xml version="1.0" encoding="UTF-8" standalone="no"?>
<!DOCTYPE svg PUBLIC "-//W3C//DTD SVG 1.1//EN"
 "http://www.w3.org/Graphics/SVG/1.1/DTD/svg11.dtd">
<!-- Generated by graphviz version 2.36.0 (20140111.2315)
 -->
<!-- Title: Room::display Pages: 1 -->
<svg width="234pt" height="203pt"
 viewBox="0.00 0.00 234.00 203.00" xmlns="http://www.w3.org/2000/svg" xmlns:xlink="http://www.w3.org/1999/xlink">
<g id="graph0" class="graph" transform="scale(1 1) rotate(0) translate(4 199)">
<title>Room::display</title>
<polygon fill="white" stroke="none" points="-4,4 -4,-199 230,-199 230,4 -4,4"/>
<!-- Node1 -->
<g id="node1" class="node"><title>Node1</title>
<polygon fill="#bfbfbf" stroke="black" points="0,-82.5 0,-101.5 80,-101.5 80,-82.5 0,-82.5"/>
<text text-anchor="middle" x="40" y="-89.5" font-family="Helvetica,sans-Serif" font-size="10.00">Room::display</text>
</g>
<!-- Node2 -->
<g id="node2" class="node"><title>Node2</title>
<g id="a_node2"><a xlink:href="utilities_8h.html#a334955a74c33e5d837de6484dc6a97da" target="_top" xlink:title="println">
<polygon fill="white" stroke="black" points="149.5,-175.5 149.5,-194.5 192.5,-194.5 192.5,-175.5 149.5,-175.5"/>
<text text-anchor="middle" x="171" y="-182.5" font-family="Helvetica,sans-Serif" font-size="10.00">println</text>
</a>
</g>
</g>
<!-- Node1&#45;&gt;Node2 -->
<g id="edge1" class="edge"><title>Node1&#45;&gt;Node2</title>
<path fill="none" stroke="midnightblue" d="M48.7526,-101.839C61.3541,-117.246 87.732,-147.147 116,-165 123.271,-169.592 131.753,-173.357 139.811,-176.331"/>
<polygon fill="midnightblue" stroke="midnightblue" points="138.726,-179.658 149.32,-179.569 140.983,-173.032 138.726,-179.658"/>
</g>
<!-- Node3 -->
<g id="node3" class="node"><title>Node3</title>
<g id="a_node3"><a xlink:href="classRoom_1_1DimensionSet.html#a8b0aec7207d5128df0f9772160ac591f" target="_top" xlink:title="Room::DimensionSet\l::getLength">
<polygon fill="white" stroke="black" points="116,-126 116,-156 226,-156 226,-126 116,-126"/>
<text text-anchor="start" x="124" y="-144" font-family="Helvetica,sans-Serif" font-size="10.00">Room::DimensionSet</text>
<text text-anchor="middle" x="171" y="-133" font-family="Helvetica,sans-Serif" font-size="10.00">::getLength</text>
</a>
</g>
</g>
<!-- Node1&#45;&gt;Node3 -->
<g id="edge2" class="edge"><title>Node1&#45;&gt;Node3</title>
<path fill="none" stroke="midnightblue" d="M66.1787,-101.564C81.7261,-107.47 102.202,-115.247 120.859,-122.334"/>
<polygon fill="midnightblue" stroke="midnightblue" points="119.822,-125.684 130.413,-125.963 122.307,-119.14 119.822,-125.684"/>
</g>
<!-- Node4 -->
<g id="node4" class="node"><title>Node4</title>
<g id="a_node4"><a xlink:href="classRoom_1_1DimensionSet.html#a4b5ac2d711a372b86f5c4699b4f6bc5a" target="_top" xlink:title="Room::DimensionSet\l::getWidth">
<polygon fill="white" stroke="black" points="116,-77 116,-107 226,-107 226,-77 116,-77"/>
<text text-anchor="start" x="124" y="-95" font-family="Helvetica,sans-Serif" font-size="10.00">Room::DimensionSet</text>
<text text-anchor="middle" x="171" y="-84" font-family="Helvetica,sans-Serif" font-size="10.00">::getWidth</text>
</a>
</g>
</g>
<!-- Node1&#45;&gt;Node4 -->
<g id="edge3" class="edge"><title>Node1&#45;&gt;Node4</title>
<path fill="none" stroke="midnightblue" d="M80.0543,-92C88.1559,-92 96.8953,-92 105.632,-92"/>
<polygon fill="midnightblue" stroke="midnightblue" points="105.847,-95.5001 115.847,-92 105.847,-88.5001 105.847,-95.5001"/>
</g>
<!-- Node5 -->
<g id="node5" class="node"><title>Node5</title>
<g id="a_node5"><a xlink:href="classRoom.html#afe53ef07e485ac556ff6d8a035f6dce9" target="_top" xlink:title="Room::area">
<polygon fill="white" stroke="black" points="137,-38.5 137,-57.5 205,-57.5 205,-38.5 137,-38.5"/>
<text text-anchor="middle" x="171" y="-45.5" font-family="Helvetica,sans-Serif" font-size="10.00">Room::area</text>
</a>
</g>
</g>
<!-- Node1&#45;&gt;Node5 -->
<g id="edge4" class="edge"><title>Node1&#45;&gt;Node5</title>
<path fill="none" stroke="midnightblue" d="M68.9911,-82.4527C87.5859,-76.1102 112.217,-67.7089 132.501,-60.7904"/>
<polygon fill="midnightblue" stroke="midnightblue" points="133.729,-64.0696 142.064,-57.5287 131.469,-57.4444 133.729,-64.0696"/>
</g>
<!-- Node6 -->
<g id="node6" class="node"><title>Node6</title>
<g id="a_node6"><a xlink:href="classRoom.html#a1f003d77d99bb89b1c5b502f3a5fb42e" target="_top" xlink:title="Room::flooringCost">
<polygon fill="white" stroke="black" points="120.5,-0.5 120.5,-19.5 221.5,-19.5 221.5,-0.5 120.5,-0.5"/>
<text text-anchor="middle" x="171" y="-7.5" font-family="Helvetica,sans-Serif" font-size="10.00">Room::flooringCost</text>
</a>
</g>
</g>
<!-- Node1&#45;&gt;Node6 -->
<g id="edge5" class="edge"><title>Node1&#45;&gt;Node6</title>
<path fill="none" stroke="midnightblue" d="M50.3229,-82.1959C63.7197,-68.5988 89.7094,-44.0004 116,-29 119.642,-26.9222 123.55,-25.0132 127.537,-23.2739"/>
<polygon fill="midnightblue" stroke="midnightblue" points="128.917,-26.4916 136.898,-19.5236 126.314,-19.9937 128.917,-26.4916"/>
</g>
</g>
</svg>
