<?xml version="1.0" encoding="UTF-8" standalone="no"?>
<!DOCTYPE svg PUBLIC "-//W3C//DTD SVG 1.1//EN"
 "http://www.w3.org/Graphics/SVG/1.1/DTD/svg11.dtd">
<!-- Generated by graphviz version 2.36.0 (20140111.2315)
 -->
<!-- Title: main Pages: 1 -->
<svg width="176pt" height="66pt"
 viewBox="0.00 0.00 176.00 66.00" xmlns="http://www.w3.org/2000/svg" xmlns:xlink="http://www.w3.org/1999/xlink">
<g id="graph0" class="graph" transform="scale(1 1) rotate(0) translate(4 62)">
<title>main</title>
<polygon fill="white" stroke="none" points="-4,4 -4,-62 172,-62 172,4 -4,4"/>
<!-- Node1 -->
<g id="node1" class="node"><title>Node1</title>
<polygon fill="#bfbfbf" stroke="black" points="0,-19.5 0,-38.5 38,-38.5 38,-19.5 0,-19.5"/>
<text text-anchor="middle" x="19" y="-26.5" font-family="Helvetica,sans-Serif" font-size="10.00">main</text>
</g>
<!-- Node2 -->
<g id="node2" class="node"><title>Node2</title>
<g id="a_node2"><a xlink:href="classHouse.html#a13cbcc156df50cd85dfe7a8fde385df4" target="_top" xlink:title="House::addRoom">
<polygon fill="white" stroke="black" points="74.5,-38.5 74.5,-57.5 167.5,-57.5 167.5,-38.5 74.5,-38.5"/>
<text text-anchor="middle" x="121" y="-45.5" font-family="Helvetica,sans-Serif" font-size="10.00">House::addRoom</text>
</a>
</g>
</g>
<!-- Node1&#45;&gt;Node2 -->
<g id="edge1" class="edge"><title>Node1&#45;&gt;Node2</title>
<path fill="none" stroke="midnightblue" d="M38.3415,-32.4849C45.8742,-33.9161 55.0355,-35.6567 64.4625,-37.4479"/>
<polygon fill="midnightblue" stroke="midnightblue" points="63.848,-40.8937 74.3256,-39.3219 65.1547,-34.0167 63.848,-40.8937"/>
</g>
<!-- Node3 -->
<g id="node3" class="node"><title>Node3</title>
<g id="a_node3"><a xlink:href="classHouse.html#a4b4c400732f391db0ff7347c1f4fdb70" target="_top" xlink:title="House::setName">
<polygon fill="white" stroke="black" points="75.5,-0.5 75.5,-19.5 166.5,-19.5 166.5,-0.5 75.5,-0.5"/>
<text text-anchor="middle" x="121" y="-7.5" font-family="Helvetica,sans-Serif" font-size="10.00">House::setName</text>
</a>
</g>
</g>
<!-- Node1&#45;&gt;Node3 -->
<g id="edge2" class="edge"><title>Node1&#45;&gt;Node3</title>
<path fill="none" stroke="midnightblue" d="M38.3415,-25.5151C46.0416,-24.0521 55.4434,-22.2657 65.0914,-20.4326"/>
<polygon fill="midnightblue" stroke="midnightblue" points="66.0027,-23.8222 75.1736,-18.517 64.6961,-16.9452 66.0027,-23.8222"/>
</g>
</g>
</svg>
