<?xml version="1.0" encoding="UTF-8" standalone="no"?>
<!DOCTYPE svg PUBLIC "-//W3C//DTD SVG 1.1//EN"
 "http://www.w3.org/Graphics/SVG/1.1/DTD/svg11.dtd">
<!-- Generated by graphviz version 2.36.0 (20140111.2315)
 -->
<!-- Title: Room::setDimensions Pages: 1 -->
<svg width="268pt" height="87pt"
 viewBox="0.00 0.00 268.00 87.00" xmlns="http://www.w3.org/2000/svg" xmlns:xlink="http://www.w3.org/1999/xlink">
<g id="graph0" class="graph" transform="scale(1 1) rotate(0) translate(4 83)">
<title>Room::setDimensions</title>
<polygon fill="white" stroke="none" points="-4,4 -4,-83 264,-83 264,4 -4,4"/>
<!-- Node1 -->
<g id="node1" class="node"><title>Node1</title>
<polygon fill="#bfbfbf" stroke="black" points="0,-29.5 0,-48.5 114,-48.5 114,-29.5 0,-29.5"/>
<text text-anchor="middle" x="57" y="-36.5" font-family="Helvetica,sans-Serif" font-size="10.00">Room::setDimensions</text>
</g>
<!-- Node2 -->
<g id="node2" class="node"><title>Node2</title>
<g id="a_node2"><a xlink:href="classRoom_1_1DimensionSet.html#aa7549fb6bcab32613f0319fdf6a027eb" target="_top" xlink:title="Room::DimensionSet\l::setLength">
<polygon fill="white" stroke="black" points="150,-49 150,-79 260,-79 260,-49 150,-49"/>
<text text-anchor="start" x="158" y="-67" font-family="Helvetica,sans-Serif" font-size="10.00">Room::DimensionSet</text>
<text text-anchor="middle" x="205" y="-56" font-family="Helvetica,sans-Serif" font-size="10.00">::setLength</text>
</a>
</g>
</g>
<!-- Node1&#45;&gt;Node2 -->
<g id="edge1" class="edge"><title>Node1&#45;&gt;Node2</title>
<path fill="none" stroke="midnightblue" d="M113.613,-48.5227C122.278,-50.0065 131.291,-51.5498 140.122,-53.062"/>
<polygon fill="midnightblue" stroke="midnightblue" points="139.541,-56.5134 149.988,-54.7514 140.722,-49.6138 139.541,-56.5134"/>
</g>
<!-- Node3 -->
<g id="node3" class="node"><title>Node3</title>
<g id="a_node3"><a xlink:href="classRoom_1_1DimensionSet.html#a6f7ba786cd3beb7835cde7191a90e8bd" target="_top" xlink:title="Room::DimensionSet\l::setWidth">
<polygon fill="white" stroke="black" points="150,-0 150,-30 260,-30 260,-0 150,-0"/>
<text text-anchor="start" x="158" y="-18" font-family="Helvetica,sans-Serif" font-size="10.00">Room::DimensionSet</text>
<text text-anchor="middle" x="205" y="-7" font-family="Helvetica,sans-Serif" font-size="10.00">::setWidth</text>
</a>
</g>
</g>
<!-- Node1&#45;&gt;Node3 -->
<g id="edge2" class="edge"><title>Node1&#45;&gt;Node3</title>
<path fill="none" stroke="midnightblue" d="M114.03,-29.7896C122.468,-28.4024 131.227,-26.9626 139.821,-25.55"/>
<polygon fill="midnightblue" stroke="midnightblue" points="140.504,-28.9848 149.804,-23.909 139.368,-22.0775 140.504,-28.9848"/>
</g>
</g>
</svg>
