<?xml version="1.0" encoding="UTF-8" standalone="no"?>
<!DOCTYPE svg PUBLIC "-//W3C//DTD SVG 1.1//EN"
 "http://www.w3.org/Graphics/SVG/1.1/DTD/svg11.dtd">
<!-- Generated by graphviz version 2.36.0 (20140111.2315)
 -->
<!-- Title: updateRoom.cpp Pages: 1 -->
<svg width="548pt" height="196pt"
 viewBox="0.00 0.00 547.79 196.00" xmlns="http://www.w3.org/2000/svg" xmlns:xlink="http://www.w3.org/1999/xlink">
<g id="graph0" class="graph" transform="scale(1 1) rotate(0) translate(4 192)">
<title>updateRoom.cpp</title>
<polygon fill="white" stroke="none" points="-4,4 -4,-192 543.785,-192 543.785,4 -4,4"/>
<!-- Node1 -->
<g id="node1" class="node"><title>Node1</title>
<polygon fill="#bfbfbf" stroke="black" points="244.285,-168.5 244.285,-187.5 335.285,-187.5 335.285,-168.5 244.285,-168.5"/>
<text text-anchor="middle" x="289.785" y="-175.5" font-family="Helvetica,sans-Serif" font-size="10.00">updateRoom.cpp</text>
</g>
<!-- Node2 -->
<g id="node2" class="node"><title>Node2</title>
<polygon fill="white" stroke="#bfbfbf" points="30.785,-0.5 30.785,-19.5 84.785,-19.5 84.785,-0.5 30.785,-0.5"/>
<text text-anchor="middle" x="57.785" y="-7.5" font-family="Helvetica,sans-Serif" font-size="10.00">iostream</text>
</g>
<!-- Node1&#45;&gt;Node2 -->
<g id="edge1" class="edge"><title>Node1&#45;&gt;Node2</title>
<path fill="none" stroke="midnightblue" d="M244.152,-175.798C195.969,-172.814 119.066,-163.065 60.785,-132 23.7593,-112.264 -12.8362,-94.0774 4.78502,-56 10.7052,-43.2072 22.2532,-32.7216 33.0626,-25.1003"/>
<polygon fill="midnightblue" stroke="midnightblue" points="34.9987,-28.0161 41.4514,-19.613 31.1668,-22.1581 34.9987,-28.0161"/>
</g>
<!-- Node3 -->
<g id="node3" class="node"><title>Node3</title>
<polygon fill="white" stroke="#bfbfbf" points="363.785,-112.5 363.785,-131.5 413.785,-131.5 413.785,-112.5 363.785,-112.5"/>
<text text-anchor="middle" x="388.785" y="-119.5" font-family="Helvetica,sans-Serif" font-size="10.00">iomanip</text>
</g>
<!-- Node1&#45;&gt;Node3 -->
<g id="edge2" class="edge"><title>Node1&#45;&gt;Node3</title>
<path fill="none" stroke="midnightblue" d="M305.691,-168.324C321.423,-159.743 345.727,-146.486 363.994,-136.522"/>
<polygon fill="midnightblue" stroke="midnightblue" points="365.815,-139.516 372.918,-131.655 362.463,-133.37 365.815,-139.516"/>
</g>
<!-- Node4 -->
<g id="node4" class="node"><title>Node4</title>
<polygon fill="white" stroke="#bfbfbf" points="432.285,-112.5 432.285,-131.5 477.285,-131.5 477.285,-112.5 432.285,-112.5"/>
<text text-anchor="middle" x="454.785" y="-119.5" font-family="Helvetica,sans-Serif" font-size="10.00">cstdlib</text>
</g>
<!-- Node1&#45;&gt;Node4 -->
<g id="edge3" class="edge"><title>Node1&#45;&gt;Node4</title>
<path fill="none" stroke="midnightblue" d="M315.93,-168.444C344.874,-158.971 391.547,-143.696 422.687,-133.505"/>
<polygon fill="midnightblue" stroke="midnightblue" points="423.794,-136.825 432.209,-130.388 421.617,-130.172 423.794,-136.825"/>
</g>
<!-- Node5 -->
<g id="node5" class="node"><title>Node5</title>
<polygon fill="white" stroke="#bfbfbf" points="495.785,-112.5 495.785,-131.5 539.785,-131.5 539.785,-112.5 495.785,-112.5"/>
<text text-anchor="middle" x="517.785" y="-119.5" font-family="Helvetica,sans-Serif" font-size="10.00">cmath</text>
</g>
<!-- Node1&#45;&gt;Node5 -->
<g id="edge4" class="edge"><title>Node1&#45;&gt;Node5</title>
<path fill="none" stroke="midnightblue" d="M329.713,-168.428C367.322,-160.221 425.461,-147.195 485.416,-131.992"/>
<polygon fill="midnightblue" stroke="midnightblue" points="486.619,-135.297 495.443,-129.433 484.888,-128.514 486.619,-135.297"/>
</g>
<!-- Node6 -->
<g id="node6" class="node"><title>Node6</title>
<polygon fill="white" stroke="#bfbfbf" points="120.285,-0.5 120.285,-19.5 161.285,-19.5 161.285,-0.5 120.285,-0.5"/>
<text text-anchor="middle" x="140.785" y="-7.5" font-family="Helvetica,sans-Serif" font-size="10.00">string</text>
</g>
<!-- Node1&#45;&gt;Node6 -->
<g id="edge5" class="edge"><title>Node1&#45;&gt;Node6</title>
<path fill="none" stroke="midnightblue" d="M253.11,-168.4C231.605,-161.682 205.306,-150.328 187.785,-132 159.976,-102.911 148.094,-55.5275 143.451,-29.5269"/>
<polygon fill="midnightblue" stroke="midnightblue" points="146.884,-28.8326 141.837,-19.5173 139.973,-29.947 146.884,-28.8326"/>
</g>
<!-- Node7 -->
<g id="node7" class="node"><title>Node7</title>
<polygon fill="white" stroke="#bfbfbf" points="296.785,-0.5 296.785,-19.5 336.785,-19.5 336.785,-0.5 296.785,-0.5"/>
<text text-anchor="middle" x="316.785" y="-7.5" font-family="Helvetica,sans-Serif" font-size="10.00">utility</text>
</g>
<!-- Node1&#45;&gt;Node7 -->
<g id="edge6" class="edge"><title>Node1&#45;&gt;Node7</title>
<path fill="none" stroke="midnightblue" d="M293.781,-168.33C301.449,-151.159 317.983,-111.421 323.785,-76 325.222,-67.228 324.47,-64.8624 323.785,-56 323.106,-47.2204 321.693,-37.5626 320.313,-29.4526"/>
<polygon fill="midnightblue" stroke="midnightblue" points="323.751,-28.7961 318.524,-19.5806 316.863,-30.0446 323.751,-28.7961"/>
</g>
<!-- Node8 -->
<g id="node8" class="node"><title>Node8</title>
<g id="a_node8"><a xlink:href="utilities_8h.html" target="_top" xlink:title="utilities.h">
<polygon fill="white" stroke="black" points="13.785,-56.5 13.785,-75.5 69.785,-75.5 69.785,-56.5 13.785,-56.5"/>
<text text-anchor="middle" x="41.785" y="-63.5" font-family="Helvetica,sans-Serif" font-size="10.00">utilities.h</text>
</a>
</g>
</g>
<!-- Node1&#45;&gt;Node8 -->
<g id="edge7" class="edge"><title>Node1&#45;&gt;Node8</title>
<path fill="none" stroke="midnightblue" d="M244.076,-176.795C199.503,-174.486 131.623,-165.158 83.785,-132 67.0973,-120.433 55.4755,-99.871 48.754,-84.9648"/>
<polygon fill="midnightblue" stroke="midnightblue" points="51.9761,-83.5976 44.8815,-75.7288 45.5205,-86.3044 51.9761,-83.5976"/>
</g>
<!-- Node9 -->
<g id="node9" class="node"><title>Node9</title>
<g id="a_node9"><a xlink:href="Room_8h.html" target="_top" xlink:title="Room.h">
<polygon fill="white" stroke="black" points="264.285,-56.5 264.285,-75.5 315.285,-75.5 315.285,-56.5 264.285,-56.5"/>
<text text-anchor="middle" x="289.785" y="-63.5" font-family="Helvetica,sans-Serif" font-size="10.00">Room.h</text>
</a>
</g>
</g>
<!-- Node1&#45;&gt;Node9 -->
<g id="edge10" class="edge"><title>Node1&#45;&gt;Node9</title>
<path fill="none" stroke="midnightblue" d="M289.785,-168.368C289.785,-150.617 289.785,-109.666 289.785,-85.5974"/>
<polygon fill="midnightblue" stroke="midnightblue" points="293.285,-85.5914 289.785,-75.5914 286.285,-85.5915 293.285,-85.5914"/>
</g>
<!-- Node10 -->
<g id="node10" class="node"><title>Node10</title>
<g id="a_node10"><a xlink:href="House_8h.html" target="_top" xlink:title="House.h">
<polygon fill="white" stroke="black" points="197.285,-112.5 197.285,-131.5 250.285,-131.5 250.285,-112.5 197.285,-112.5"/>
<text text-anchor="middle" x="223.785" y="-119.5" font-family="Helvetica,sans-Serif" font-size="10.00">House.h</text>
</a>
</g>
</g>
<!-- Node1&#45;&gt;Node10 -->
<g id="edge14" class="edge"><title>Node1&#45;&gt;Node10</title>
<path fill="none" stroke="midnightblue" d="M279.181,-168.324C269.329,-160.263 254.434,-148.077 242.57,-138.369"/>
<polygon fill="midnightblue" stroke="midnightblue" points="244.538,-135.457 234.582,-131.834 240.105,-140.875 244.538,-135.457"/>
</g>
<!-- Node8&#45;&gt;Node2 -->
<g id="edge8" class="edge"><title>Node8&#45;&gt;Node2</title>
<path fill="none" stroke="midnightblue" d="M44.4271,-56.083C46.5706,-48.8486 49.6639,-38.4087 52.3341,-29.3968"/>
<polygon fill="midnightblue" stroke="midnightblue" points="55.707,-30.3334 55.1921,-19.7511 48.9954,-28.3447 55.707,-30.3334"/>
</g>
<!-- Node8&#45;&gt;Node6 -->
<g id="edge9" class="edge"><title>Node8&#45;&gt;Node6</title>
<path fill="none" stroke="midnightblue" d="M57.6911,-56.324C73.4233,-47.7428 97.7274,-34.486 115.994,-24.5224"/>
<polygon fill="midnightblue" stroke="midnightblue" points="117.815,-27.5157 124.918,-19.6545 114.463,-21.3704 117.815,-27.5157"/>
</g>
<!-- Node9&#45;&gt;Node2 -->
<g id="edge11" class="edge"><title>Node9&#45;&gt;Node2</title>
<path fill="none" stroke="midnightblue" d="M264.234,-58.5475C260.726,-57.6805 257.168,-56.8111 253.785,-56 198.622,-42.7733 134.527,-28.2089 95.0592,-19.333"/>
<polygon fill="midnightblue" stroke="midnightblue" points="95.6164,-15.871 85.0925,-17.0948 94.0826,-22.7009 95.6164,-15.871"/>
</g>
<!-- Node9&#45;&gt;Node6 -->
<g id="edge12" class="edge"><title>Node9&#45;&gt;Node6</title>
<path fill="none" stroke="midnightblue" d="M266.176,-56.4435C240.45,-47.1203 199.217,-32.1768 171.112,-21.9911"/>
<polygon fill="midnightblue" stroke="midnightblue" points="171.999,-18.5898 161.405,-18.473 169.614,-25.1709 171.999,-18.5898"/>
</g>
<!-- Node9&#45;&gt;Node7 -->
<g id="edge13" class="edge"><title>Node9&#45;&gt;Node7</title>
<path fill="none" stroke="midnightblue" d="M294.244,-56.083C297.939,-48.6913 303.308,-37.9533 307.879,-28.8111"/>
<polygon fill="midnightblue" stroke="midnightblue" points="311.068,-30.2606 312.409,-19.7511 304.807,-27.1301 311.068,-30.2606"/>
</g>
<!-- Node10&#45;&gt;Node2 -->
<g id="edge15" class="edge"><title>Node10&#45;&gt;Node2</title>
<path fill="none" stroke="midnightblue" d="M210.759,-112.368C182.274,-93.4924 114.202,-48.385 79.2695,-25.2367"/>
<polygon fill="midnightblue" stroke="midnightblue" points="81.0195,-22.1977 70.7503,-19.5914 77.1528,-28.0328 81.0195,-22.1977"/>
</g>
<!-- Node10&#45;&gt;Node6 -->
<g id="edge16" class="edge"><title>Node10&#45;&gt;Node6</title>
<path fill="none" stroke="midnightblue" d="M217.272,-112.368C203.514,-94.135 171.288,-51.4257 153.367,-27.6752"/>
<polygon fill="midnightblue" stroke="midnightblue" points="156.085,-25.4659 147.268,-19.5914 150.497,-29.6821 156.085,-25.4659"/>
</g>
<!-- Node10&#45;&gt;Node9 -->
<g id="edge18" class="edge"><title>Node10&#45;&gt;Node9</title>
<path fill="none" stroke="midnightblue" d="M234.389,-112.324C244.241,-104.263 259.136,-92.0765 271,-82.3695"/>
<polygon fill="midnightblue" stroke="midnightblue" points="273.465,-84.8752 278.988,-75.8339 269.032,-79.4575 273.465,-84.8752"/>
</g>
<!-- Node11 -->
<g id="node11" class="node"><title>Node11</title>
<polygon fill="white" stroke="#bfbfbf" points="201.785,-56.5 201.785,-75.5 245.785,-75.5 245.785,-56.5 201.785,-56.5"/>
<text text-anchor="middle" x="223.785" y="-63.5" font-family="Helvetica,sans-Serif" font-size="10.00">vector</text>
</g>
<!-- Node10&#45;&gt;Node11 -->
<g id="edge17" class="edge"><title>Node10&#45;&gt;Node11</title>
<path fill="none" stroke="midnightblue" d="M223.785,-112.083C223.785,-105.006 223.785,-94.8611 223.785,-85.9865"/>
<polygon fill="midnightblue" stroke="midnightblue" points="227.285,-85.751 223.785,-75.7511 220.285,-85.7511 227.285,-85.751"/>
</g>
</g>
</svg>
