<?xml version="1.0" encoding="UTF-8" standalone="no"?>
<!DOCTYPE svg PUBLIC "-//W3C//DTD SVG 1.1//EN"
 "http://www.w3.org/Graphics/SVG/1.1/DTD/svg11.dtd">
<!-- Generated by graphviz version 2.36.0 (20140111.2315)
 -->
<!-- Title: operator&lt;&lt; Pages: 1 -->
<svg width="334pt" height="203pt"
 viewBox="0.00 0.00 334.00 203.00" xmlns="http://www.w3.org/2000/svg" xmlns:xlink="http://www.w3.org/1999/xlink">
<g id="graph0" class="graph" transform="scale(1 1) rotate(0) translate(4 199)">
<title>operator&lt;&lt;</title>
<polygon fill="white" stroke="none" points="-4,4 -4,-199 330,-199 330,4 -4,4"/>
<!-- Node1 -->
<g id="node1" class="node"><title>Node1</title>
<polygon fill="#bfbfbf" stroke="black" points="0,-82.5 0,-101.5 64,-101.5 64,-82.5 0,-82.5"/>
<text text-anchor="middle" x="32" y="-89.5" font-family="Helvetica,sans-Serif" font-size="10.00">operator&lt;&lt;</text>
</g>
<!-- Node2 -->
<g id="node2" class="node"><title>Node2</title>
<g id="a_node2"><a xlink:href="classRoom.html#ab351d4f8a5dd7d230c1d36c4a2a64e8e" target="_top" xlink:title="Room::display">
<polygon fill="white" stroke="black" points="100,-82.5 100,-101.5 180,-101.5 180,-82.5 100,-82.5"/>
<text text-anchor="middle" x="140" y="-89.5" font-family="Helvetica,sans-Serif" font-size="10.00">Room::display</text>
</a>
</g>
</g>
<!-- Node1&#45;&gt;Node2 -->
<g id="edge1" class="edge"><title>Node1&#45;&gt;Node2</title>
<path fill="none" stroke="midnightblue" d="M64.2302,-92C72.2188,-92 81.006,-92 89.6624,-92"/>
<polygon fill="midnightblue" stroke="midnightblue" points="89.7084,-95.5001 99.7084,-92 89.7083,-88.5001 89.7084,-95.5001"/>
</g>
<!-- Node3 -->
<g id="node3" class="node"><title>Node3</title>
<g id="a_node3"><a xlink:href="utilities_8h.html#a334955a74c33e5d837de6484dc6a97da" target="_top" xlink:title="println">
<polygon fill="white" stroke="black" points="249.5,-175.5 249.5,-194.5 292.5,-194.5 292.5,-175.5 249.5,-175.5"/>
<text text-anchor="middle" x="271" y="-182.5" font-family="Helvetica,sans-Serif" font-size="10.00">println</text>
</a>
</g>
</g>
<!-- Node2&#45;&gt;Node3 -->
<g id="edge2" class="edge"><title>Node2&#45;&gt;Node3</title>
<path fill="none" stroke="midnightblue" d="M148.753,-101.839C161.354,-117.246 187.732,-147.147 216,-165 223.271,-169.592 231.753,-173.357 239.811,-176.331"/>
<polygon fill="midnightblue" stroke="midnightblue" points="238.726,-179.658 249.32,-179.569 240.983,-173.032 238.726,-179.658"/>
</g>
<!-- Node4 -->
<g id="node4" class="node"><title>Node4</title>
<g id="a_node4"><a xlink:href="classRoom_1_1DimensionSet.html#a8b0aec7207d5128df0f9772160ac591f" target="_top" xlink:title="Room::DimensionSet\l::getLength">
<polygon fill="white" stroke="black" points="216,-126 216,-156 326,-156 326,-126 216,-126"/>
<text text-anchor="start" x="224" y="-144" font-family="Helvetica,sans-Serif" font-size="10.00">Room::DimensionSet</text>
<text text-anchor="middle" x="271" y="-133" font-family="Helvetica,sans-Serif" font-size="10.00">::getLength</text>
</a>
</g>
</g>
<!-- Node2&#45;&gt;Node4 -->
<g id="edge3" class="edge"><title>Node2&#45;&gt;Node4</title>
<path fill="none" stroke="midnightblue" d="M166.179,-101.564C181.726,-107.47 202.202,-115.247 220.859,-122.334"/>
<polygon fill="midnightblue" stroke="midnightblue" points="219.822,-125.684 230.413,-125.963 222.307,-119.14 219.822,-125.684"/>
</g>
<!-- Node5 -->
<g id="node5" class="node"><title>Node5</title>
<g id="a_node5"><a xlink:href="classRoom_1_1DimensionSet.html#a4b5ac2d711a372b86f5c4699b4f6bc5a" target="_top" xlink:title="Room::DimensionSet\l::getWidth">
<polygon fill="white" stroke="black" points="216,-77 216,-107 326,-107 326,-77 216,-77"/>
<text text-anchor="start" x="224" y="-95" font-family="Helvetica,sans-Serif" font-size="10.00">Room::DimensionSet</text>
<text text-anchor="middle" x="271" y="-84" font-family="Helvetica,sans-Serif" font-size="10.00">::getWidth</text>
</a>
</g>
</g>
<!-- Node2&#45;&gt;Node5 -->
<g id="edge4" class="edge"><title>Node2&#45;&gt;Node5</title>
<path fill="none" stroke="midnightblue" d="M180.054,-92C188.156,-92 196.895,-92 205.632,-92"/>
<polygon fill="midnightblue" stroke="midnightblue" points="205.847,-95.5001 215.847,-92 205.847,-88.5001 205.847,-95.5001"/>
</g>
<!-- Node6 -->
<g id="node6" class="node"><title>Node6</title>
<g id="a_node6"><a xlink:href="classRoom.html#afe53ef07e485ac556ff6d8a035f6dce9" target="_top" xlink:title="Room::area">
<polygon fill="white" stroke="black" points="237,-38.5 237,-57.5 305,-57.5 305,-38.5 237,-38.5"/>
<text text-anchor="middle" x="271" y="-45.5" font-family="Helvetica,sans-Serif" font-size="10.00">Room::area</text>
</a>
</g>
</g>
<!-- Node2&#45;&gt;Node6 -->
<g id="edge5" class="edge"><title>Node2&#45;&gt;Node6</title>
<path fill="none" stroke="midnightblue" d="M168.991,-82.4527C187.586,-76.1102 212.217,-67.7089 232.501,-60.7904"/>
<polygon fill="midnightblue" stroke="midnightblue" points="233.729,-64.0696 242.064,-57.5287 231.469,-57.4444 233.729,-64.0696"/>
</g>
<!-- Node7 -->
<g id="node7" class="node"><title>Node7</title>
<g id="a_node7"><a xlink:href="classRoom.html#a1f003d77d99bb89b1c5b502f3a5fb42e" target="_top" xlink:title="Room::flooringCost">
<polygon fill="white" stroke="black" points="220.5,-0.5 220.5,-19.5 321.5,-19.5 321.5,-0.5 220.5,-0.5"/>
<text text-anchor="middle" x="271" y="-7.5" font-family="Helvetica,sans-Serif" font-size="10.00">Room::flooringCost</text>
</a>
</g>
</g>
<!-- Node2&#45;&gt;Node7 -->
<g id="edge6" class="edge"><title>Node2&#45;&gt;Node7</title>
<path fill="none" stroke="midnightblue" d="M150.323,-82.1959C163.72,-68.5988 189.709,-44.0004 216,-29 219.642,-26.9222 223.55,-25.0132 227.537,-23.2739"/>
<polygon fill="midnightblue" stroke="midnightblue" points="228.917,-26.4916 236.898,-19.5236 226.314,-19.9937 228.917,-26.4916"/>
</g>
</g>
</svg>
