<?xml version="1.0" encoding="UTF-8" standalone="no"?>
<!DOCTYPE svg PUBLIC "-//W3C//DTD SVG 1.1//EN"
 "http://www.w3.org/Graphics/SVG/1.1/DTD/svg11.dtd">
<!-- Generated by graphviz version 2.36.0 (20140111.2315)
 -->
<!-- Title: updateRoom.cpp Pages: 1 -->
<svg width="533pt" height="196pt"
 viewBox="0.00 0.00 532.78 196.00" xmlns="http://www.w3.org/2000/svg" xmlns:xlink="http://www.w3.org/1999/xlink">
<g id="graph0" class="graph" transform="scale(1 1) rotate(0) translate(4 192)">
<title>updateRoom.cpp</title>
<polygon fill="white" stroke="none" points="-4,4 -4,-192 528.776,-192 528.776,4 -4,4"/>
<!-- Node1 -->
<g id="node1" class="node"><title>Node1</title>
<polygon fill="#bfbfbf" stroke="black" points="229.276,-168.5 229.276,-187.5 320.276,-187.5 320.276,-168.5 229.276,-168.5"/>
<text text-anchor="middle" x="274.776" y="-175.5" font-family="Helvetica,sans-Serif" font-size="10.00">updateRoom.cpp</text>
</g>
<!-- Node2 -->
<g id="node2" class="node"><title>Node2</title>
<polygon fill="white" stroke="#bfbfbf" points="30.7763,-0.5 30.7763,-19.5 84.7763,-19.5 84.7763,-0.5 30.7763,-0.5"/>
<text text-anchor="middle" x="57.7763" y="-7.5" font-family="Helvetica,sans-Serif" font-size="10.00">iostream</text>
</g>
<!-- Node1&#45;&gt;Node2 -->
<g id="edge1" class="edge"><title>Node1&#45;&gt;Node2</title>
<path fill="none" stroke="midnightblue" d="M229.176,-174.93C183.992,-171.208 114.024,-160.836 60.7763,-132 23.8819,-112.02 -12.8449,-94.0774 4.7763,-56 10.6965,-43.2072 22.2445,-32.7216 33.0538,-25.1003"/>
<polygon fill="midnightblue" stroke="midnightblue" points="34.99,-28.0161 41.4427,-19.613 31.1581,-22.1581 34.99,-28.0161"/>
</g>
<!-- Node3 -->
<g id="node3" class="node"><title>Node3</title>
<polygon fill="white" stroke="#bfbfbf" points="348.776,-112.5 348.776,-131.5 398.776,-131.5 398.776,-112.5 348.776,-112.5"/>
<text text-anchor="middle" x="373.776" y="-119.5" font-family="Helvetica,sans-Serif" font-size="10.00">iomanip</text>
</g>
<!-- Node1&#45;&gt;Node3 -->
<g id="edge2" class="edge"><title>Node1&#45;&gt;Node3</title>
<path fill="none" stroke="midnightblue" d="M290.682,-168.324C306.415,-159.743 330.719,-146.486 348.985,-136.522"/>
<polygon fill="midnightblue" stroke="midnightblue" points="350.807,-139.516 357.91,-131.655 347.455,-133.37 350.807,-139.516"/>
</g>
<!-- Node4 -->
<g id="node4" class="node"><title>Node4</title>
<polygon fill="white" stroke="#bfbfbf" points="417.276,-112.5 417.276,-131.5 462.276,-131.5 462.276,-112.5 417.276,-112.5"/>
<text text-anchor="middle" x="439.776" y="-119.5" font-family="Helvetica,sans-Serif" font-size="10.00">cstdlib</text>
</g>
<!-- Node1&#45;&gt;Node4 -->
<g id="edge3" class="edge"><title>Node1&#45;&gt;Node4</title>
<path fill="none" stroke="midnightblue" d="M300.921,-168.444C329.866,-158.971 376.538,-143.696 407.678,-133.505"/>
<polygon fill="midnightblue" stroke="midnightblue" points="408.785,-136.825 417.201,-130.388 406.608,-130.172 408.785,-136.825"/>
</g>
<!-- Node5 -->
<g id="node5" class="node"><title>Node5</title>
<polygon fill="white" stroke="#bfbfbf" points="480.776,-112.5 480.776,-131.5 524.776,-131.5 524.776,-112.5 480.776,-112.5"/>
<text text-anchor="middle" x="502.776" y="-119.5" font-family="Helvetica,sans-Serif" font-size="10.00">cmath</text>
</g>
<!-- Node1&#45;&gt;Node5 -->
<g id="edge4" class="edge"><title>Node1&#45;&gt;Node5</title>
<path fill="none" stroke="midnightblue" d="M314.704,-168.428C352.314,-160.221 410.452,-147.195 470.407,-131.992"/>
<polygon fill="midnightblue" stroke="midnightblue" points="471.61,-135.297 480.434,-129.433 469.879,-128.514 471.61,-135.297"/>
</g>
<!-- Node6 -->
<g id="node6" class="node"><title>Node6</title>
<polygon fill="white" stroke="#bfbfbf" points="120.276,-0.5 120.276,-19.5 161.276,-19.5 161.276,-0.5 120.276,-0.5"/>
<text text-anchor="middle" x="140.776" y="-7.5" font-family="Helvetica,sans-Serif" font-size="10.00">string</text>
</g>
<!-- Node1&#45;&gt;Node6 -->
<g id="edge5" class="edge"><title>Node1&#45;&gt;Node6</title>
<path fill="none" stroke="midnightblue" d="M241.993,-168.48C221.799,-161.675 196.796,-150.199 180.776,-132 154.798,-102.488 145.612,-55.644 142.423,-29.7505"/>
<polygon fill="midnightblue" stroke="midnightblue" points="145.898,-29.332 141.366,-19.7555 138.937,-30.0682 145.898,-29.332"/>
</g>
<!-- Node7 -->
<g id="node7" class="node"><title>Node7</title>
<polygon fill="white" stroke="#bfbfbf" points="281.776,-0.5 281.776,-19.5 321.776,-19.5 321.776,-0.5 281.776,-0.5"/>
<text text-anchor="middle" x="301.776" y="-7.5" font-family="Helvetica,sans-Serif" font-size="10.00">utility</text>
</g>
<!-- Node1&#45;&gt;Node7 -->
<g id="edge6" class="edge"><title>Node1&#45;&gt;Node7</title>
<path fill="none" stroke="midnightblue" d="M278.772,-168.33C286.44,-151.159 302.974,-111.421 308.776,-76 310.213,-67.228 309.461,-64.8624 308.776,-56 308.098,-47.2204 306.684,-37.5626 305.304,-29.4526"/>
<polygon fill="midnightblue" stroke="midnightblue" points="308.743,-28.7961 303.515,-19.5806 301.855,-30.0446 308.743,-28.7961"/>
</g>
<!-- Node8 -->
<g id="node8" class="node"><title>Node8</title>
<g id="a_node8"><a xlink:href="utilities_8h.html" target="_top" xlink:title="utilities.h">
<polygon fill="white" stroke="black" points="13.7763,-56.5 13.7763,-75.5 69.7763,-75.5 69.7763,-56.5 13.7763,-56.5"/>
<text text-anchor="middle" x="41.7763" y="-63.5" font-family="Helvetica,sans-Serif" font-size="10.00">utilities.h</text>
</a>
</g>
</g>
<!-- Node1&#45;&gt;Node8 -->
<g id="edge7" class="edge"><title>Node1&#45;&gt;Node8</title>
<path fill="none" stroke="midnightblue" d="M229.195,-175.725C187.845,-172.511 126.929,-162.434 83.7763,-132 67.343,-120.41 55.7688,-100.154 48.9892,-85.3268"/>
<polygon fill="midnightblue" stroke="midnightblue" points="52.0283,-83.5287 44.899,-75.6913 45.5848,-86.264 52.0283,-83.5287"/>
</g>
<!-- Node9 -->
<g id="node9" class="node"><title>Node9</title>
<g id="a_node9"><a xlink:href="Room_8h.html" target="_top" xlink:title="Room.h">
<polygon fill="white" stroke="black" points="249.276,-56.5 249.276,-75.5 300.276,-75.5 300.276,-56.5 249.276,-56.5"/>
<text text-anchor="middle" x="274.776" y="-63.5" font-family="Helvetica,sans-Serif" font-size="10.00">Room.h</text>
</a>
</g>
</g>
<!-- Node1&#45;&gt;Node9 -->
<g id="edge10" class="edge"><title>Node1&#45;&gt;Node9</title>
<path fill="none" stroke="midnightblue" d="M274.776,-168.368C274.776,-150.617 274.776,-109.666 274.776,-85.5974"/>
<polygon fill="midnightblue" stroke="midnightblue" points="278.276,-85.5914 274.776,-75.5914 271.276,-85.5915 278.276,-85.5914"/>
</g>
<!-- Node10 -->
<g id="node10" class="node"><title>Node10</title>
<g id="a_node10"><a xlink:href="House_8h.html" target="_top" xlink:title="House.h">
<polygon fill="white" stroke="black" points="190.276,-112.5 190.276,-131.5 243.276,-131.5 243.276,-112.5 190.276,-112.5"/>
<text text-anchor="middle" x="216.776" y="-119.5" font-family="Helvetica,sans-Serif" font-size="10.00">House.h</text>
</a>
</g>
</g>
<!-- Node1&#45;&gt;Node10 -->
<g id="edge14" class="edge"><title>Node1&#45;&gt;Node10</title>
<path fill="none" stroke="midnightblue" d="M265.458,-168.324C256.884,-160.341 243.964,-148.313 233.589,-138.653"/>
<polygon fill="midnightblue" stroke="midnightblue" points="235.969,-136.086 226.265,-131.834 231.199,-141.21 235.969,-136.086"/>
</g>
<!-- Node8&#45;&gt;Node2 -->
<g id="edge8" class="edge"><title>Node8&#45;&gt;Node2</title>
<path fill="none" stroke="midnightblue" d="M44.4184,-56.083C46.5619,-48.8486 49.6552,-38.4087 52.3254,-29.3968"/>
<polygon fill="midnightblue" stroke="midnightblue" points="55.6982,-30.3334 55.1834,-19.7511 48.9866,-28.3447 55.6982,-30.3334"/>
</g>
<!-- Node8&#45;&gt;Node6 -->
<g id="edge9" class="edge"><title>Node8&#45;&gt;Node6</title>
<path fill="none" stroke="midnightblue" d="M57.6824,-56.324C73.4145,-47.7428 97.7186,-34.486 115.985,-24.5224"/>
<polygon fill="midnightblue" stroke="midnightblue" points="117.807,-27.5157 124.91,-19.6545 114.455,-21.3704 117.807,-27.5157"/>
</g>
<!-- Node9&#45;&gt;Node2 -->
<g id="edge11" class="edge"><title>Node9&#45;&gt;Node2</title>
<path fill="none" stroke="midnightblue" d="M249.169,-58.386C246.007,-57.5779 242.818,-56.7671 239.776,-56 189.58,-43.3409 131.506,-29.0421 94.7179,-20.0272"/>
<polygon fill="midnightblue" stroke="midnightblue" points="95.476,-16.6095 84.9305,-17.6305 93.8109,-23.4086 95.476,-16.6095"/>
</g>
<!-- Node9&#45;&gt;Node6 -->
<g id="edge12" class="edge"><title>Node9&#45;&gt;Node6</title>
<path fill="none" stroke="midnightblue" d="M253.544,-56.4435C231.262,-47.4646 196.046,-33.2729 170.898,-23.1386"/>
<polygon fill="midnightblue" stroke="midnightblue" points="172.053,-19.8305 161.469,-19.339 169.436,-26.3231 172.053,-19.8305"/>
</g>
<!-- Node9&#45;&gt;Node7 -->
<g id="edge13" class="edge"><title>Node9&#45;&gt;Node7</title>
<path fill="none" stroke="midnightblue" d="M279.235,-56.083C282.931,-48.6913 288.3,-37.9533 292.871,-28.8111"/>
<polygon fill="midnightblue" stroke="midnightblue" points="296.059,-30.2606 297.401,-19.7511 289.798,-27.1301 296.059,-30.2606"/>
</g>
<!-- Node10&#45;&gt;Node2 -->
<g id="edge15" class="edge"><title>Node10&#45;&gt;Node2</title>
<path fill="none" stroke="midnightblue" d="M204.3,-112.368C177.131,-93.5728 112.369,-48.7684 78.7836,-25.5334"/>
<polygon fill="midnightblue" stroke="midnightblue" points="80.4099,-22.4025 70.1948,-19.5914 76.4273,-28.1592 80.4099,-22.4025"/>
</g>
<!-- Node10&#45;&gt;Node6 -->
<g id="edge16" class="edge"><title>Node10&#45;&gt;Node6</title>
<path fill="none" stroke="midnightblue" d="M210.813,-112.368C198.271,-94.2153 168.966,-51.8015 152.515,-27.9902"/>
<polygon fill="midnightblue" stroke="midnightblue" points="155.276,-25.8292 146.712,-19.5914 149.517,-29.8083 155.276,-25.8292"/>
</g>
<!-- Node10&#45;&gt;Node9 -->
<g id="edge18" class="edge"><title>Node10&#45;&gt;Node9</title>
<path fill="none" stroke="midnightblue" d="M226.095,-112.324C234.669,-104.341 247.589,-92.3128 257.964,-82.6529"/>
<polygon fill="midnightblue" stroke="midnightblue" points="260.354,-85.2098 265.288,-75.8339 255.584,-80.0865 260.354,-85.2098"/>
</g>
<!-- Node11 -->
<g id="node11" class="node"><title>Node11</title>
<polygon fill="white" stroke="#bfbfbf" points="202.276,-56.5 202.276,-75.5 231.276,-75.5 231.276,-56.5 202.276,-56.5"/>
<text text-anchor="middle" x="216.776" y="-63.5" font-family="Helvetica,sans-Serif" font-size="10.00">list</text>
</g>
<!-- Node10&#45;&gt;Node11 -->
<g id="edge17" class="edge"><title>Node10&#45;&gt;Node11</title>
<path fill="none" stroke="midnightblue" d="M216.776,-112.083C216.776,-105.006 216.776,-94.8611 216.776,-85.9865"/>
<polygon fill="midnightblue" stroke="midnightblue" points="220.276,-85.751 216.776,-75.7511 213.276,-85.7511 220.276,-85.751"/>
</g>
</g>
</svg>
