<?xml version="1.0" encoding="UTF-8" standalone="no"?>
<!DOCTYPE svg PUBLIC "-//W3C//DTD SVG 1.1//EN"
 "http://www.w3.org/Graphics/SVG/1.1/DTD/svg11.dtd">
<!-- Generated by graphviz version 2.36.0 (20140111.2315)
 -->
<!-- Title: main Pages: 1 -->
<svg width="184pt" height="142pt"
 viewBox="0.00 0.00 184.00 142.00" xmlns="http://www.w3.org/2000/svg" xmlns:xlink="http://www.w3.org/1999/xlink">
<g id="graph0" class="graph" transform="scale(1 1) rotate(0) translate(4 138)">
<title>main</title>
<polygon fill="white" stroke="none" points="-4,4 -4,-138 180,-138 180,4 -4,4"/>
<!-- Node1 -->
<g id="node1" class="node"><title>Node1</title>
<polygon fill="#bfbfbf" stroke="black" points="0,-57.5 0,-76.5 38,-76.5 38,-57.5 0,-57.5"/>
<text text-anchor="middle" x="19" y="-64.5" font-family="Helvetica,sans-Serif" font-size="10.00">main</text>
</g>
<!-- Node2 -->
<g id="node2" class="node"><title>Node2</title>
<g id="a_node2"><a xlink:href="classHouse.html#a13cbcc156df50cd85dfe7a8fde385df4" target="_top" xlink:title="House::addRoom">
<polygon fill="white" stroke="black" points="78.5,-114.5 78.5,-133.5 171.5,-133.5 171.5,-114.5 78.5,-114.5"/>
<text text-anchor="middle" x="125" y="-121.5" font-family="Helvetica,sans-Serif" font-size="10.00">House::addRoom</text>
</a>
</g>
</g>
<!-- Node1&#45;&gt;Node2 -->
<g id="edge1" class="edge"><title>Node1&#45;&gt;Node2</title>
<path fill="none" stroke="midnightblue" d="M31.8757,-76.6725C42.4591,-84.9634 58.6107,-96.8275 74,-105 77.7368,-106.984 81.7272,-108.864 85.7627,-110.614"/>
<polygon fill="midnightblue" stroke="midnightblue" points="84.5811,-113.912 95.1624,-114.448 87.2251,-107.431 84.5811,-113.912"/>
</g>
<!-- Node3 -->
<g id="node3" class="node"><title>Node3</title>
<g id="a_node3"><a xlink:href="classHouse.html#ae70ecbaede41b41d52ff35f4ecaaf6a6" target="_top" xlink:title="House::begin">
<polygon fill="white" stroke="black" points="88,-76.5 88,-95.5 162,-95.5 162,-76.5 88,-76.5"/>
<text text-anchor="middle" x="125" y="-83.5" font-family="Helvetica,sans-Serif" font-size="10.00">House::begin</text>
</a>
</g>
</g>
<!-- Node1&#45;&gt;Node3 -->
<g id="edge2" class="edge"><title>Node1&#45;&gt;Node3</title>
<path fill="none" stroke="midnightblue" d="M38.1154,-70.3095C49.0737,-72.3115 63.5879,-74.9632 77.5604,-77.5158"/>
<polygon fill="midnightblue" stroke="midnightblue" points="77.114,-80.9921 87.5802,-79.3464 78.3721,-74.1061 77.114,-80.9921"/>
</g>
<!-- Node4 -->
<g id="node4" class="node"><title>Node4</title>
<g id="a_node4"><a xlink:href="classRoom.html#a1f003d77d99bb89b1c5b502f3a5fb42e" target="_top" xlink:title="Room::flooringCost">
<polygon fill="white" stroke="black" points="74.5,-38.5 74.5,-57.5 175.5,-57.5 175.5,-38.5 74.5,-38.5"/>
<text text-anchor="middle" x="125" y="-45.5" font-family="Helvetica,sans-Serif" font-size="10.00">Room::flooringCost</text>
</a>
</g>
</g>
<!-- Node1&#45;&gt;Node4 -->
<g id="edge3" class="edge"><title>Node1&#45;&gt;Node4</title>
<path fill="none" stroke="midnightblue" d="M38.1154,-63.6905C45.631,-62.3174 54.8191,-60.6388 64.358,-58.8961"/>
<polygon fill="midnightblue" stroke="midnightblue" points="65.162,-62.3073 74.3701,-57.067 63.9039,-55.4212 65.162,-62.3073"/>
</g>
<!-- Node5 -->
<g id="node5" class="node"><title>Node5</title>
<g id="a_node5"><a xlink:href="classRoom.html#ae3132aaaa310aa04492f8cb8a9cbff25" target="_top" xlink:title="Room::setFlooring">
<polygon fill="white" stroke="black" points="76.5,-0.5 76.5,-19.5 173.5,-19.5 173.5,-0.5 76.5,-0.5"/>
<text text-anchor="middle" x="125" y="-7.5" font-family="Helvetica,sans-Serif" font-size="10.00">Room::setFlooring</text>
</a>
</g>
</g>
<!-- Node1&#45;&gt;Node5 -->
<g id="edge4" class="edge"><title>Node1&#45;&gt;Node5</title>
<path fill="none" stroke="midnightblue" d="M31.8757,-57.3275C42.4591,-49.0366 58.6107,-37.1725 74,-29 77.7368,-27.0156 81.7272,-25.1357 85.7627,-23.386"/>
<polygon fill="midnightblue" stroke="midnightblue" points="87.2251,-26.5695 95.1624,-19.5516 84.5811,-20.088 87.2251,-26.5695"/>
</g>
</g>
</svg>
